<svg width="483" height="251" viewBox="0 0 483 251" fill="none" xmlns="http://www.w3.org/2000/svg">
<g id="&#208;&#159;&#209;&#128;&#208;&#190;&#208;&#191;&#209;&#131;&#209;&#129;&#208;&#186; &#208;&#178; &#208;&#190;&#208;&#177;&#209;&#137;&#208;&#176;&#208;&#179;&#209;&#131;" clip-path="url(#clip0_8_23)">
<rect width="483" height="251" fill="white"/>
<rect id="Rectangle 17" width="483" height="307" fill="url(#paint0_linear_8_23)"/>
<line id="Line 1" x1="169.5" y1="251" x2="169.5" y2="-2.18557e-08" stroke="black"/>
<line id="Line 2" x1="183" y1="34.5" x2="483" y2="34.5" stroke="black"/>
<line id="Line 3" x1="183" y1="71.5" x2="483" y2="71.5" stroke="black"/>
<line id="Line 4" x1="183" y1="108.5" x2="483" y2="108.5" stroke="black"/>
<line id="Line 5" x1="183" y1="145.5" x2="483" y2="145.5" stroke="black"/>
<line id="Line 6" x1="205" y1="181.5" x2="483" y2="181.5" stroke="black"/>
<path id="&#208;&#164;." d="M188.409 170.75H190.25C191.114 170.75 191.881 170.943 192.551 171.33C193.222 171.716 193.748 172.254 194.131 172.943C194.513 173.633 194.705 174.432 194.705 175.341C194.705 176.25 194.513 177.051 194.131 177.744C193.748 178.437 193.222 178.979 192.551 179.369C191.881 179.759 191.114 179.955 190.25 179.955H188.409C187.545 179.955 186.778 179.761 186.108 179.375C185.438 178.989 184.911 178.451 184.528 177.761C184.146 177.072 183.955 176.273 183.955 175.364C183.955 174.455 184.146 173.653 184.528 172.96C184.911 172.267 185.438 171.725 186.108 171.335C186.778 170.945 187.545 170.75 188.409 170.75ZM188.409 172C187.75 172 187.193 172.138 186.739 172.415C186.288 172.691 185.945 173.081 185.71 173.585C185.479 174.089 185.364 174.682 185.364 175.364C185.364 176.038 185.479 176.625 185.71 177.125C185.945 177.625 186.288 178.013 186.739 178.29C187.193 178.566 187.75 178.705 188.409 178.705H190.25C190.909 178.705 191.464 178.566 191.915 178.29C192.369 178.013 192.712 177.623 192.943 177.119C193.178 176.616 193.295 176.023 193.295 175.341C193.295 174.667 193.178 174.08 192.943 173.58C192.712 173.08 192.369 172.691 191.915 172.415C191.464 172.138 190.909 172 190.25 172H188.409ZM190.045 169.159V181.477H188.636V169.159H190.045ZM197.126 181.091C196.846 181.091 196.606 180.991 196.405 180.79C196.204 180.589 196.104 180.348 196.104 180.068C196.104 179.788 196.204 179.547 196.405 179.347C196.606 179.146 196.846 179.045 197.126 179.045C197.407 179.045 197.647 179.146 197.848 179.347C198.049 179.547 198.149 179.788 198.149 180.068C198.149 180.254 198.102 180.424 198.007 180.58C197.916 180.735 197.793 180.86 197.638 180.955C197.486 181.045 197.316 181.091 197.126 181.091Z" fill="black"/>
<path id="&#208;&#147;&#209;&#128;." d="M191.432 208.364V209.614H185.818V220H184.409V208.364H191.432ZM192.524 223.273V211.273H193.82V212.659H193.979C194.077 212.508 194.214 212.314 194.388 212.08C194.566 211.841 194.82 211.629 195.149 211.443C195.482 211.254 195.933 211.159 196.501 211.159C197.236 211.159 197.884 211.343 198.445 211.71C199.005 212.078 199.443 212.598 199.757 213.273C200.071 213.947 200.229 214.742 200.229 215.659C200.229 216.583 200.071 217.384 199.757 218.062C199.443 218.737 199.007 219.259 198.45 219.631C197.893 219.998 197.251 220.182 196.524 220.182C195.964 220.182 195.515 220.089 195.178 219.903C194.84 219.714 194.581 219.5 194.399 219.261C194.217 219.019 194.077 218.818 193.979 218.659H193.865V223.273H192.524ZM193.842 215.636C193.842 216.295 193.939 216.877 194.132 217.381C194.325 217.881 194.607 218.273 194.979 218.557C195.35 218.837 195.804 218.977 196.342 218.977C196.903 218.977 197.371 218.83 197.746 218.534C198.125 218.235 198.409 217.833 198.598 217.33C198.791 216.822 198.888 216.258 198.888 215.636C198.888 215.023 198.793 214.47 198.604 213.977C198.418 213.481 198.136 213.089 197.757 212.801C197.382 212.509 196.911 212.364 196.342 212.364C195.797 212.364 195.339 212.502 194.967 212.778C194.596 213.051 194.316 213.434 194.126 213.926C193.937 214.415 193.842 214.985 193.842 215.636ZM203.251 220.091C202.971 220.091 202.731 219.991 202.53 219.79C202.329 219.589 202.229 219.348 202.229 219.068C202.229 218.788 202.329 218.547 202.53 218.347C202.731 218.146 202.971 218.045 203.251 218.045C203.532 218.045 203.772 218.146 203.973 218.347C204.174 218.547 204.274 218.788 204.274 219.068C204.274 219.254 204.227 219.424 204.132 219.58C204.041 219.735 203.918 219.86 203.763 219.955C203.611 220.045 203.441 220.091 203.251 220.091Z" fill="black"/>
<path id="&#208;&#154;&#208;&#190;&#208;&#188;." d="M393.25 220L389.25 214.659H387.818V220H386.409V208.364H387.818V213.409H388.432L393.091 208.364H394.773L390.068 213.477L394.932 220H393.25ZM399.476 220.182C398.688 220.182 397.997 219.994 397.402 219.619C396.811 219.244 396.349 218.72 396.016 218.045C395.686 217.371 395.521 216.583 395.521 215.682C395.521 214.773 395.686 213.979 396.016 213.301C396.349 212.623 396.811 212.097 397.402 211.722C397.997 211.347 398.688 211.159 399.476 211.159C400.264 211.159 400.953 211.347 401.544 211.722C402.139 212.097 402.601 212.623 402.93 213.301C403.264 213.979 403.43 214.773 403.43 215.682C403.43 216.583 403.264 217.371 402.93 218.045C402.601 218.72 402.139 219.244 401.544 219.619C400.953 219.994 400.264 220.182 399.476 220.182ZM399.476 218.977C400.074 218.977 400.567 218.824 400.953 218.517C401.339 218.21 401.625 217.807 401.811 217.307C401.997 216.807 402.089 216.265 402.089 215.682C402.089 215.098 401.997 214.555 401.811 214.051C401.625 213.547 401.339 213.14 400.953 212.83C400.567 212.519 400.074 212.364 399.476 212.364C398.877 212.364 398.385 212.519 397.999 212.83C397.612 213.14 397.326 213.547 397.141 214.051C396.955 214.555 396.862 215.098 396.862 215.682C396.862 216.265 396.955 216.807 397.141 217.307C397.326 217.807 397.612 218.21 397.999 218.517C398.385 218.824 398.877 218.977 399.476 218.977ZM410.25 218.182L413.295 211.273H414.568L410.795 220H409.705L406 211.273H407.25L410.25 218.182ZM406.818 211.273V220H405.477V211.273H406.818ZM413.682 220V211.273H415.023V220H413.682ZM418.455 220.091C418.174 220.091 417.934 219.991 417.733 219.79C417.532 219.589 417.432 219.348 417.432 219.068C417.432 218.788 417.532 218.547 417.733 218.347C417.934 218.146 418.174 218.045 418.455 218.045C418.735 218.045 418.975 218.146 419.176 218.347C419.377 218.547 419.477 218.788 419.477 219.068C419.477 219.254 419.43 219.424 419.335 219.58C419.244 219.735 419.121 219.86 418.966 219.955C418.814 220.045 418.644 220.091 418.455 220.091Z" fill="black"/>
<line id="Line 7" x1="209" y1="217.5" x2="382" y2="217.5" stroke="black"/>
<line id="Line 8" x1="424" y1="217.5" x2="483" y2="217.5" stroke="black"/>
<g id="Group 4">
<rect id="Rectangle 18" x="8" y="53" width="148" height="146.299" fill="white"/>
<g id="others">
<path id="79" d="M70.9317 79.728C71.5972 78.9406 72.1482 78.2659 72.5857 77.7208C73.0232 77.1757 73.7558 76.4544 74.2119 76.1189C74.4893 75.9149 74.7657 75.7108 75.0431 75.5077C73.0214 77.6742 71.5051 79.4857 70.9298 80.4231C70.7045 80.7893 70.496 80.9794 70.416 80.8918C70.3397 80.807 70.4216 80.5256 70.6068 80.2358C70.7148 80.0662 70.8237 79.8966 70.9317 79.728Z" fill="#A86749"/>
</g>
<g id="person">
<path id="12" d="M67.7697 138.185C67.7957 136.022 67.8218 133.86 67.8479 131.699C67.63 131.178 67.4113 130.656 67.1926 130.135C66.8314 129.276 66.1026 127.603 65.572 126.42C65.0414 125.236 64.6067 124.058 64.6067 123.802C64.6067 123.646 64.6067 123.491 64.6067 123.336C64.5853 123.296 64.5639 123.257 64.5425 123.218C64.3722 122.907 63.3343 117.938 63.1826 116.71C62.989 115.138 62.6828 114.27 62.3225 114.27C62.1373 114.27 62.0768 114.443 62.0768 114.974C62.0768 115.361 62.006 115.677 61.9185 115.677C61.832 115.677 61.052 114.977 60.1854 114.119C59.3188 113.263 58.576 112.616 58.535 112.682C58.4931 112.749 58.5183 113.059 58.589 113.372C58.683 113.783 59.0442 114.258 59.8866 115.083C61.5946 116.754 62.1997 117.73 62.7358 119.68C62.9843 120.583 63.2934 121.565 63.6582 122.398C62.801 122.272 59.437 120.606 58.1525 119.671C55.7044 117.891 54.4646 114.974 55.2734 112.902C55.3805 112.629 55.4875 112.355 55.5936 112.082C56.0293 112.113 56.464 112.144 56.8986 112.175C57.9291 112.247 58.4857 112.197 59.5468 111.937C62.3002 111.262 63.4181 110.459 65.8717 107.393C66.2403 106.976 66.6099 106.559 66.9785 106.143C67.1442 106.012 67.3108 105.882 67.4765 105.752C67.7501 105.537 68.1057 105.361 68.5599 105.361C68.7182 105.361 68.8764 105.361 69.0346 105.361C70.0492 105.392 71.0629 105.422 72.0784 105.451C74.8281 105.533 75.1753 105.515 75.6751 105.257C75.8594 105.161 76.0437 105.066 76.2289 104.971C76.228 104.528 76.2261 104.084 76.2252 103.642C76.2224 101.966 76.0623 101.184 75.7021 101.072C75.5494 101.023 75.0003 100.953 74.4827 100.916C73.3369 100.834 73.336 100.826 74.1523 98.5623C74.4622 97.7022 74.802 96.4712 74.9081 95.8264C75.0133 95.1816 75.1483 94.5973 75.2078 94.5274C75.2674 94.4566 75.6416 94.8508 76.04 95.4015C77.8216 97.8699 80.0453 99.2509 84.53 100.672C84.583 100.933 84.6352 101.193 84.6882 101.454C84.6752 101.984 84.6612 102.515 84.6482 103.046C84.6352 103.577 84.6221 104.108 84.6091 104.638C84.7822 104.754 84.9554 104.872 85.1285 104.988C86.1794 105.696 88.835 105.883 91.566 105.444C92.0407 105.368 92.5145 105.291 92.9892 105.215C93.5226 105.774 94.055 106.333 94.5884 106.893C97.1258 109.556 98.3982 110.05 102.714 110.05C102.51 110.079 102.305 110.108 102.101 110.137C101.539 110.216 101.48 110.27 101.395 110.801C101.342 111.119 101.298 111.502 101.29 111.926C101.193 112.148 101.097 112.368 101 112.59C100.84 112.955 100.283 113.677 99.7619 114.192C98.8832 115.063 98.8134 115.102 98.792 114.739C98.7789 114.525 98.6328 114.208 98.4671 114.036C98.1702 113.727 98.1665 113.738 98.146 114.896C98.1339 115.54 98.0175 117.053 97.8863 118.256C97.4534 122.227 97.4469 122.329 97.6126 122.164C97.8239 121.953 98.3712 119.846 98.684 118.035C98.8236 117.226 99.0349 116.382 99.1531 116.159C99.4715 115.563 101.102 114.059 101.949 113.58C102.355 113.35 102.764 113.06 103.03 112.708C103.399 112.395 103.768 112.082 104.137 111.769C104.242 111.769 104.347 111.769 104.453 111.769C104.922 112.488 104.996 112.913 104.987 113.71C104.959 116.566 103.616 118.739 100.964 120.226C100.443 120.517 99.4333 121.144 98.7203 121.617C98.2875 121.903 97.8556 122.19 97.4237 122.476C97.3613 122.841 97.2999 123.206 97.2384 123.57C96.8521 125.844 95.3451 128.941 93.343 131.574C93.0032 132.021 92.7668 132.461 92.817 132.551C92.8487 132.605 92.8794 132.659 92.9101 132.714C92.8561 132.701 92.8022 132.688 92.7482 132.675C92.6597 132.654 92.1078 133.299 91.5232 134.11C89.9203 136.332 88.0196 137.659 84.9963 138.669C82.0866 139.64 78.784 139.433 76.0493 138.109C75.2786 137.736 74.6121 137.477 74.5684 137.534C74.4474 137.692 76.9596 140.015 78.9953 141.628C79.996 142.42 81.2228 143.271 82.632 143.968C82.6023 144.048 82.5715 144.127 82.5408 144.208C82.4906 144.34 82.2141 144.8 81.9274 145.231C81.7533 145.493 81.5793 145.753 81.4052 146.014C81.1753 145.869 80.9445 145.723 80.7146 145.577C80.3348 145.337 78.8138 144.567 77.3357 143.867C74.3301 142.445 72.0747 141.025 69.7867 139.116C68.5367 138.071 68.2025 137.864 67.7697 138.185ZM67.3015 109.394C67.1032 109.765 66.9896 110.292 66.9859 110.864C66.9794 111.712 67.2149 112.551 67.4597 112.551C67.5221 112.551 67.7743 112.159 68.0201 111.678C68.5059 110.729 69.1975 110.05 69.6788 110.05C70.0455 110.05 70.0585 110.269 69.7458 111.144C69.1035 112.943 69.7514 114.434 71.3803 114.91C71.9314 115.07 72.2106 115.072 72.8035 114.915C73.9968 114.599 74.5702 113.885 75.1064 112.043C75.3 111.378 75.4415 111.144 75.6518 111.144C75.9571 111.144 76.471 111.629 76.7679 112.2C76.8684 112.393 77.0201 112.551 77.1039 112.551C77.6615 112.551 76.4849 110.223 75.3605 109.103C74.6307 108.376 74.3003 108.175 73.3248 107.867C70.7064 107.039 68.223 107.669 67.3015 109.394ZM77.5237 123.261C76.5873 122.94 76.4542 122.925 76.497 123.148C76.5752 123.546 77.5032 124.08 78.4918 124.295C79.7651 124.573 83.6178 124.566 84.6007 124.284C85.5362 124.015 86.9017 122.812 86.9017 122.256C86.9017 121.931 86.8347 121.96 86.1263 122.59C85.2998 123.324 84.2693 123.741 82.8824 123.902C81.7021 124.039 78.7719 123.688 77.5237 123.261ZM82.5185 119.306C82.1443 119.669 81.8641 120.038 81.8958 120.127C81.9805 120.363 83.1189 120.286 83.2808 120.035C83.4456 119.776 83.4707 118.647 83.3106 118.647C83.2482 118.647 82.8917 118.943 82.5185 119.306ZM85.5669 110.901C84.6798 112.365 84.9228 112.737 86.0323 111.614C86.3721 111.27 86.7016 110.988 86.7649 110.988C86.8282 110.988 86.9985 111.516 87.1437 112.161C87.5542 113.981 88.3193 114.863 89.616 115.007C91.6926 115.238 92.7249 113.395 92.0072 110.737C91.836 110.102 91.7317 109.548 91.7755 109.504C91.9486 109.333 92.5397 109.441 93.0218 109.731C93.3858 109.951 93.6939 110.388 94.1183 111.286C94.4423 111.972 94.7746 112.493 94.8555 112.444C94.9384 112.394 94.9719 111.802 94.9319 111.118C94.8704 110.068 94.7895 109.784 94.3929 109.225C93.6902 108.239 92.4038 107.643 90.8167 107.571C89.6858 107.52 89.4819 107.559 88.5921 107.993C87.4453 108.553 86.3553 109.601 85.5669 110.901Z" fill="#FFA075"/>
<path id="35" d="M93.0684 138.497C93.3848 138.706 93.7013 138.914 94.0169 139.122C94.6331 140.996 94.6768 141.414 94.6061 142.533C94.4646 144.773 93.2927 148.192 91.8406 150.604C90.961 152.066 89.1748 153.934 88.1667 154.448C87.1698 154.957 85.7754 154.972 85.3249 154.479C85.2179 154.362 85.1117 154.244 85.0047 154.128C84.49 153.124 83.9761 152.122 83.4623 151.119C82.6144 149.464 81.9311 148.236 81.9442 148.391C81.9572 148.545 82.3658 149.864 83.7397 153.971C83.0649 154.119 81.785 154.083 80.4586 153.988C79.6544 153.93 78.8511 153.873 78.0468 153.815C78.3726 153.072 78.6975 152.33 79.0223 151.588C80.1952 148.911 80.8858 146.997 80.6243 147.148C80.521 147.209 79.9206 148.224 79.2913 149.403C78.6621 150.583 77.8756 151.988 76.9401 153.503C76.2169 154.253 75.4936 155.004 74.7704 155.755C74.6289 155.664 74.4883 155.572 74.3468 155.481C73.6683 155.041 71.0378 152.408 70.3415 151.47C68.8383 149.447 67.0567 145.928 66.5866 144.052C66.2822 142.834 66.3344 142.035 66.8296 140.334C66.9319 139.983 67.0343 139.63 67.1367 139.279C67.6273 138.886 67.7697 138.64 67.7697 138.479C67.7697 138.381 67.7697 138.283 67.7697 138.185C68.2025 137.864 68.5367 138.071 69.7868 139.116C72.0747 141.025 74.3301 142.445 77.3357 143.867C78.8138 144.567 80.3348 145.337 80.7146 145.577C80.9445 145.723 81.1753 145.869 81.4052 146.014C81.5793 145.753 81.7533 145.493 81.9274 145.231C82.2141 144.8 82.4906 144.34 82.5408 144.208C82.5715 144.127 82.6023 144.048 82.632 143.968C83.3311 143.702 84.0292 143.435 84.7273 143.169C88.4683 141.74 90.2657 140.734 93.0684 138.497Z" fill="#FADCC8"/>
<path id="76" d="M92.9101 132.714C93.0339 134.834 93.1884 136.092 93.3327 136.879C93.5766 138.211 93.5766 138.315 93.3318 138.403C93.2434 138.434 93.1559 138.466 93.0684 138.497C90.2657 140.734 88.4683 141.74 84.7273 143.169C84.0292 143.435 83.3311 143.702 82.632 143.968C81.2228 143.271 79.996 142.42 78.9953 141.628C76.9596 140.015 74.4474 137.692 74.5684 137.534C74.6121 137.477 75.2786 137.736 76.0493 138.109C78.784 139.433 82.0866 139.64 84.9963 138.669C88.0196 137.659 89.9203 136.332 91.5232 134.11C92.1078 133.299 92.6597 132.654 92.7482 132.675C92.8021 132.688 92.8561 132.701 92.9101 132.714Z" fill="#16172D"/>
<path id="76_2" d="M67.3015 109.394C68.223 107.669 70.7064 107.039 73.3248 107.867C74.3003 108.175 74.6307 108.376 75.3605 109.103C76.4849 110.223 77.6615 112.551 77.1039 112.551C77.0201 112.551 76.8684 112.393 76.7679 112.2C76.4709 111.629 75.9571 111.144 75.6518 111.144C75.4415 111.144 75.3 111.378 75.1064 112.043C74.5702 113.885 73.9968 114.599 72.8035 114.915C72.2106 115.072 71.9313 115.07 71.3803 114.91C69.7514 114.434 69.1035 112.943 69.7458 111.144C70.0585 110.269 70.0455 110.05 69.6788 110.05C69.1975 110.05 68.5059 110.729 68.0201 111.678C67.7743 112.159 67.5221 112.551 67.4597 112.551C67.2149 112.551 66.9794 111.712 66.9859 110.864C66.9896 110.292 67.1032 109.765 67.3015 109.394Z" fill="#16172D"/>
<path id="76_3" d="M85.5669 110.901C86.3553 109.601 87.4453 108.553 88.5921 107.993C89.4819 107.559 89.6858 107.52 90.8167 107.571C92.4038 107.643 93.6901 108.239 94.3929 109.225C94.7894 109.784 94.8704 110.068 94.9319 111.118C94.9719 111.802 94.9384 112.394 94.8555 112.444C94.7745 112.493 94.4422 111.972 94.1183 111.286C93.6939 110.388 93.3858 109.951 93.0218 109.731C92.5397 109.441 91.9486 109.333 91.7755 109.504C91.7317 109.548 91.836 110.102 92.0072 110.737C92.7249 113.395 91.6926 115.239 89.616 115.007C88.3193 114.863 87.5542 113.981 87.1437 112.161C86.9985 111.516 86.8282 110.988 86.7649 110.988C86.7016 110.988 86.3721 111.27 86.0323 111.614C84.9228 112.737 84.6798 112.365 85.5669 110.901Z" fill="#16172D"/>
<path id="76_4" d="M64.6068 123.336C64.2903 123.023 63.9747 122.711 63.6583 122.398C63.2934 121.565 62.9843 120.583 62.7358 119.68C62.1997 117.73 61.5946 116.754 59.8866 115.083C59.0442 114.258 58.683 113.783 58.589 113.372C58.5183 113.059 58.4931 112.749 58.535 112.682C58.576 112.616 59.3188 113.263 60.1854 114.119C61.052 114.977 61.832 115.677 61.9186 115.677C62.0061 115.677 62.0768 115.361 62.0768 114.974C62.0768 114.443 62.1373 114.27 62.3225 114.27C62.6828 114.27 62.989 115.138 63.1826 116.71C63.3343 117.938 64.3722 122.907 64.5425 123.218C64.5639 123.257 64.5854 123.296 64.6068 123.336Z" fill="#16172D"/>
<path id="76_5" d="M103.03 112.708C102.764 113.06 102.355 113.35 101.949 113.58C101.102 114.059 99.4714 115.563 99.1531 116.159C99.0349 116.382 98.8236 117.226 98.684 118.035C98.3712 119.846 97.8239 121.953 97.6126 122.164C97.4469 122.329 97.4534 122.227 97.8863 118.256C98.0175 117.053 98.1339 115.54 98.146 114.896C98.1664 113.738 98.1702 113.727 98.4671 114.036C98.6328 114.208 98.7789 114.525 98.7919 114.739C98.8134 115.102 98.8832 115.063 99.7619 114.192C100.283 113.677 100.84 112.956 101 112.59C101.097 112.368 101.193 112.148 101.29 111.926C101.87 112.187 102.45 112.447 103.03 112.708Z" fill="#16172D"/>
<path id="35_2" d="M104.137 111.769C103.768 112.082 103.399 112.395 103.03 112.708C102.45 112.447 101.87 112.187 101.29 111.926C101.298 111.502 101.342 111.119 101.395 110.801C101.48 110.27 101.539 110.216 102.101 110.137C102.305 110.108 102.51 110.079 102.714 110.05C103.346 109.993 103.978 109.935 104.611 109.879C104.609 110.05 104.607 110.222 104.605 110.394C104.601 110.678 104.494 111.103 104.368 111.34C104.29 111.483 104.214 111.627 104.137 111.769Z" fill="#FADCC8"/>
<path id="76_6" d="M77.5237 123.261C78.7719 123.688 81.7021 124.039 82.8824 123.902C84.2693 123.741 85.2998 123.324 86.1263 122.59C86.8347 121.96 86.9017 121.931 86.9017 122.256C86.9017 122.812 85.5362 124.016 84.6007 124.284C83.6178 124.566 79.7651 124.573 78.4918 124.295C77.5032 124.08 76.5752 123.546 76.497 123.148C76.4542 122.925 76.5873 122.94 77.5237 123.261Z" fill="#16172D"/>
<path id="76_7" d="M78.0468 153.815C77.6782 153.71 77.3087 153.607 76.9401 153.503C77.8756 151.988 78.6621 150.583 79.2913 149.403C79.9206 148.224 80.5209 147.209 80.6243 147.148C80.8858 146.997 80.1951 148.911 79.0223 151.588C78.6975 152.33 78.3726 153.072 78.0468 153.815Z" fill="#16172D"/>
<path id="76_8" d="M85.0047 154.128C84.583 154.076 84.1614 154.024 83.7397 153.971C82.3658 149.864 81.9572 148.545 81.9442 148.391C81.9311 148.236 82.6144 149.464 83.4623 151.119C83.9761 152.122 84.4899 153.124 85.0047 154.128Z" fill="#16172D"/>
<path id="76_9" d="M82.5185 119.306C82.8917 118.943 83.2482 118.647 83.3106 118.647C83.4707 118.647 83.4456 119.776 83.2808 120.035C83.1189 120.286 81.9805 120.363 81.8958 120.127C81.8641 120.038 82.1443 119.669 82.5185 119.306Z" fill="#16172D"/>
</g>
<g id="sweater 2">
<path id="35_3" d="M139.872 164.131C140.673 165.165 147.374 177.094 149.354 181.012C151.472 185.201 153.988 190.937 155.374 194.736C155.593 195.339 155.785 195.658 155.866 195.557C155.911 195.502 155.955 195.447 156 195.392C156 196.693 156 197.996 156 199.299C147.356 199.299 138.712 199.299 130.068 199.299C130.174 198.83 130.279 198.361 130.385 197.892C130.437 197.736 130.49 197.58 130.543 197.423C131.419 195.182 131.988 193.459 132.373 192.148C132.606 191.354 132.839 190.559 133.073 189.764C133.073 189.556 133.073 189.348 133.073 189.139C133.305 188.955 134.426 184.88 135.191 181.441C135.222 181.298 135.255 181.155 135.287 181.012C135.287 180.855 135.287 180.699 135.287 180.543C135.529 180.206 136.575 176.25 137.404 172.532C137.436 172.389 137.468 172.246 137.5 172.102C137.5 171.894 137.5 171.686 137.5 171.477C137.723 171.174 138.185 169.592 138.672 167.764C138.966 166.657 139.261 165.55 139.555 164.443C139.661 164.339 139.767 164.235 139.872 164.131Z" fill="#FADCC8"/>
<path id="35_4" d="M8 195.235C8.22619 195.359 8.53987 194.638 8.84332 193.712C9.59542 191.421 12.7202 182.443 13.5356 180.23C13.9005 179.241 14.5399 177.483 14.9569 176.322C15.3739 175.162 16.0143 173.474 16.3802 172.571C16.746 171.669 17.2253 170.438 17.4459 169.836C18.0398 168.214 19.8381 163.926 20.0187 163.701C20.0708 163.635 20.123 163.571 20.1751 163.506C20.3864 163.766 20.5968 164.027 20.808 164.287C20.8602 164.496 20.9132 164.704 20.9654 164.912C20.7066 165.379 22.4826 171.241 23.1081 171.985C23.1844 172.076 23.2608 172.167 23.338 172.259C23.338 172.363 23.338 172.467 23.338 172.571C23.7299 174.553 24.966 179.166 25.3784 180.191C25.4891 180.465 25.599 180.738 25.7097 181.011C25.7097 181.116 25.7097 181.22 25.7097 181.324C25.9136 181.627 26.0653 182.135 26.177 182.648C26.4432 183.869 27.832 188.036 28.2378 188.831C28.3439 189.037 28.4501 189.244 28.5552 189.452C28.6614 189.608 28.7665 189.764 28.8717 189.921C28.8717 190.523 30.8404 196.494 31.3961 197.577C31.5031 197.786 31.6102 197.995 31.7182 198.205C31.7703 198.309 31.8233 198.413 31.8764 198.517C31.8764 198.778 31.8764 199.038 31.8764 199.299C23.917 199.299 15.9585 199.299 8 199.299C8 197.944 8 196.59 8 195.235Z" fill="#FADCC8"/>
</g>
<g id="sweater 1">
<path id="18" d="M100.342 142.404C106.933 144.144 123.964 150.256 129.508 152.872C130.064 153.135 130.619 153.396 131.175 153.658C131.127 153.697 131.078 153.737 131.029 153.776C130.949 153.84 130.738 154.913 130.559 156.159C130.193 158.713 129.346 165.167 129.205 166.476C129.153 166.948 128.868 169.375 128.57 171.867C128.058 176.149 127.389 182.227 126.512 190.546C126.299 192.566 125.98 195.362 125.483 199.299C121.583 199.299 117.682 199.299 113.782 199.299C114.042 198.679 114.301 198.06 114.56 197.441C116.096 193.772 116.685 191.276 116.973 187.205C117.178 184.298 117.261 184.471 115.472 184.065C112.158 183.312 110.223 183.13 105.639 183.135C101.229 183.141 100.768 183.178 96.9238 183.84C96.5869 183.897 96.2509 183.955 95.9148 184.013C95.9158 185.194 95.9167 186.373 95.9176 187.553C95.9204 191.174 96.1317 193.416 96.6492 195.304C96.7917 195.825 97.1826 196.937 98.1283 199.299C92.7519 199.299 87.3764 199.299 82 199.299C82.2895 198.322 82.5799 197.345 82.8694 196.368C83.3469 194.756 84.2787 191.749 84.9396 189.686C87.4155 181.953 89.9548 173.743 91.042 169.959C91.2691 169.167 91.4972 168.374 91.7243 167.582C91.553 167.567 91.3827 167.551 91.2114 167.536C91.0401 167.521 90.8689 167.506 90.6985 167.491C90.3346 168.742 89.9716 169.992 89.6085 171.243C88.2728 175.838 86.7035 180.888 84.0962 188.982C83.0025 192.379 81.8343 196.089 80.8933 199.299C80.2603 199.299 79.6283 199.299 78.9954 199.299C78.8194 198.968 78.6426 198.636 78.4667 198.306C75.8687 193.428 72.1185 184.169 67.8553 172.108C63.2096 158.962 60.7699 150.494 59.3886 142.718C60.0216 142.509 60.6536 142.301 61.2865 142.092C61.4467 142.731 61.6068 143.369 61.7669 144.007C62.4882 146.88 63.1203 148.669 64.2233 150.966C65.3589 153.33 66.2534 154.726 67.5128 156.099C69.8827 158.684 73.4635 160.523 77.5461 161.253C78.3661 161.399 79.8377 161.5 81.2098 161.502C88.1788 161.517 93.5813 158.752 96.7535 153.543C98.5621 150.572 99.5981 147.358 100.342 142.404Z" fill="#DCA051"/>
<path id="18_2" d="M30.927 152.564C34.8811 150.462 40.3571 148.267 45.5138 146.715C46.1328 146.529 46.7528 146.342 47.3718 146.156C47.5607 147.055 47.7497 147.954 47.9377 148.853C49.1059 154.417 50.5589 159.966 52.6728 166.944C55.1739 175.197 60.3418 189.134 63.3381 195.704C63.7886 196.692 64.3294 197.906 64.9233 199.299C55.9632 199.299 47.0032 199.299 38.0431 199.299C37.8867 198.412 37.7303 197.524 37.574 196.637C37.3152 195.172 36.8554 192.2 36.5519 190.033C35.865 185.135 34.8681 178.436 34.2575 174.613C33.7074 171.173 33.5649 170.192 32.4228 162.021C31.9416 158.582 31.4511 155.077 31.331 154.232C31.2109 153.387 31.0713 152.667 30.927 152.564ZM45.9886 179.379C45.7177 179.461 45.7391 179.837 46.0277 180.074C46.212 180.225 46.3162 180.227 46.4921 180.081C46.6774 179.931 46.763 179.978 46.952 180.339C47.0795 180.583 47.1493 180.961 47.1074 181.18C46.9985 181.743 47.3634 182.001 48.0298 181.831C48.6758 181.665 48.7857 181.094 48.2514 180.679C48.0615 180.531 47.7059 180.124 47.4602 179.775C47.0087 179.13 46.8998 179.101 45.9886 179.379Z" fill="#DCA051"/>
<path id="68" d="M47.3717 146.156C53.2629 144.37 56.935 143.333 57.2124 143.376C57.4283 143.412 57.5698 143.82 57.877 145.297C59.545 153.311 62.3458 163.6 64.9307 171.214C68.788 182.573 71.9556 190.548 75.206 197.085C75.5737 197.823 75.9404 198.561 76.3081 199.299C72.5131 199.299 68.7182 199.299 64.9232 199.299C64.3294 197.906 63.7886 196.692 63.3381 195.704C60.3418 189.134 55.1739 175.197 52.6728 166.944C50.5589 159.966 49.1059 154.417 47.9377 148.853C47.7497 147.954 47.5607 147.055 47.3717 146.156ZM57.8155 170.38C57.203 169.757 56.7013 169.168 56.7013 169.071C56.7013 168.974 56.5664 168.812 56.4016 168.71C56.1354 168.546 56.0395 168.625 55.5322 169.415C55.2185 169.903 54.9616 170.482 54.9616 170.699C54.9616 170.917 54.8434 171.262 54.6991 171.465C54.4543 171.81 54.4562 171.89 54.7308 172.688C54.8928 173.158 55.1171 173.578 55.2306 173.621C55.3433 173.664 55.4364 173.803 55.4364 173.929C55.4364 174.367 55.8292 174.028 56.2545 173.224C56.5887 172.591 56.7004 172.48 56.773 172.707C56.8242 172.865 56.8214 173.111 56.7665 173.252C56.7116 173.395 56.7451 173.509 56.8419 173.509C56.9387 173.509 57.0187 173.421 57.0215 173.314C57.0299 172.904 57.8891 172.089 58.3628 172.04C58.63 172.011 58.8562 171.886 58.8832 171.752C58.9092 171.62 58.4289 171.004 57.8155 170.38ZM57.0262 174.6C56.5887 175.122 56.5571 175.133 56.2676 174.874C56.101 174.725 55.9167 174.603 55.858 174.603C55.6691 174.603 55.7463 175.16 55.979 175.472C56.1968 175.764 56.2285 175.753 56.8484 175.158C57.2021 174.818 57.4897 174.431 57.4869 174.298C57.4842 174.147 57.312 174.26 57.0262 174.6ZM63.5019 167.804C63.4339 167.546 63.1929 166.984 62.9657 166.554C62.7386 166.123 62.5525 165.682 62.5515 165.571C62.5497 164.899 61.6058 164.283 60.5912 164.291C59.4286 164.3 57.6498 166.25 57.6498 167.515C57.6498 168.124 57.7317 168.269 58.5183 169.034C59.3346 169.828 60.5242 170.539 61.0352 170.539C61.16 170.539 61.8013 170.252 62.4603 169.9C63.5754 169.306 63.6573 169.227 63.6424 168.767C63.6331 168.495 63.5698 168.062 63.5019 167.804Z" fill="#1C1D36"/>
<path id="18_3" d="M94.0169 139.122C94.7783 139.724 95.8515 140.328 97.8519 141.282C98.4178 141.552 98.9847 141.822 99.5515 142.092C99.5227 142.314 99.4929 142.535 99.464 142.757C99.1624 145.043 97.8332 149.406 96.8428 151.362C95.643 153.729 93.6073 156.166 91.714 157.501C90.2722 158.519 88.3073 159.386 86.1896 159.941C84.3783 160.415 84.1539 160.438 81.2098 160.448C78.3159 160.457 78.031 160.431 76.579 160.03C72.0896 158.79 69.1864 156.738 66.6825 153.038C64.5016 149.814 63.2422 146.628 62.235 141.78C62.3505 141.625 63.0793 141.286 63.9301 140.927C64.7808 140.567 65.8503 140.049 66.3064 139.776C66.5838 139.61 66.8603 139.445 67.1367 139.279C67.0343 139.63 66.932 139.983 66.8296 140.334C66.3344 142.035 66.2822 142.834 66.5866 144.052C67.0567 145.928 68.8383 149.447 70.3415 151.47C71.0378 152.408 73.6683 155.041 74.3468 155.481C74.4883 155.572 74.6289 155.664 74.7704 155.755C75.4936 155.004 76.2169 154.253 76.9401 153.503C77.3087 153.607 77.6782 153.71 78.0468 153.815C78.8511 153.873 79.6544 153.93 80.4586 153.988C81.785 154.083 83.0649 154.119 83.7397 153.971C84.1614 154.024 84.583 154.076 85.0047 154.128C85.1118 154.244 85.2179 154.362 85.3249 154.479C85.7754 154.972 87.1698 154.957 88.1667 154.448C89.1748 153.934 90.961 152.066 91.8406 150.604C93.2927 148.192 94.4646 144.773 94.6061 142.533C94.6768 141.414 94.6331 140.996 94.0169 139.122Z" fill="#DCA051"/>
<path id="76_10" d="M76.6236 199.299C72.0654 189.945 69.3847 183.314 65.4724 171.712C62.6744 163.412 60.6536 156.178 58.5323 146.864C58.2484 145.621 57.9654 144.379 57.6824 143.136C57.9672 143.066 58.2511 142.996 58.536 142.926C58.8199 142.856 59.1047 142.787 59.3886 142.718C60.7699 150.494 63.2096 158.962 67.8553 172.108C72.1185 184.169 75.8687 193.428 78.4666 198.306C78.6426 198.636 78.8194 198.968 78.9954 199.299C78.2051 199.299 77.4148 199.299 76.6236 199.299Z" fill="#16172D"/>
<path id="18_4" d="M23.3381 172.259C23.2608 172.167 23.1845 172.076 23.1081 171.985C22.4826 171.241 20.7066 165.379 20.9654 164.912C21.8227 164.488 22.679 164.065 23.5354 163.641C26.5103 162.169 29.9469 160.643 30.8237 160.405C31.0266 160.35 31.2295 160.295 31.4324 160.24C31.6214 161.557 31.8113 162.875 32.0002 164.194C32.1892 165.511 32.3791 166.829 32.568 168.146C32.3074 168.241 32.0477 168.335 31.7871 168.429C28.922 169.466 24.6263 171.413 23.3381 172.259Z" fill="#DCA051"/>
<path id="18_5" d="M23.338 172.571C23.4097 172.6 23.4805 172.629 23.5521 172.658C23.6703 172.705 25.1113 172.152 26.7541 171.43C30.0576 169.979 32.4656 169.038 32.5848 169.156C32.6276 169.198 32.8408 170.353 33.0595 171.722C33.2782 173.092 33.5901 174.978 33.753 175.913C33.8516 176.481 33.9503 177.047 34.049 177.614C33.8581 177.668 33.6673 177.721 33.4765 177.774C31.5702 178.307 28.0284 179.783 25.7098 181.011C25.599 180.738 25.4892 180.465 25.3784 180.191C24.966 179.166 23.7299 174.553 23.338 172.571Z" fill="#DCA051"/>
<path id="18_6" d="M20.1751 163.506C19.9052 161.386 19.7907 160.302 19.747 159.731C19.72 159.384 19.6939 159.039 19.6669 158.692C20.0551 158.422 20.4423 158.151 20.8304 157.88C23.3697 156.11 26.7532 154.275 29.1482 153.37C29.5838 153.205 30.0185 153.041 30.4532 152.877C30.6031 153.971 30.7529 155.065 30.9028 156.159C31.2891 158.98 31.3189 159.442 31.116 159.442C30.1609 159.442 23.0551 162.782 20.8081 164.287C20.5968 164.027 20.3864 163.766 20.1751 163.506Z" fill="#DCA051"/>
<path id="18_7" d="M25.7098 181.324C25.788 181.355 25.8661 181.387 25.9443 181.418C26.0737 181.47 27.1944 181.086 28.4352 180.565C30.9074 179.528 33.9177 178.444 34.0276 178.553C34.0657 178.591 34.345 180.197 34.6484 182.122C34.9509 184.047 35.2404 185.839 35.2897 186.104C35.3195 186.264 35.3502 186.425 35.38 186.586C34.7824 186.781 34.1858 186.976 33.5882 187.172C31.4185 187.881 29.3232 188.831 28.5553 189.452C28.4501 189.244 28.344 189.037 28.2379 188.831C27.832 188.036 26.4432 183.869 26.177 182.648C26.0653 182.135 25.9136 181.627 25.7098 181.324Z" fill="#DCA051"/>
<path id="76_11" d="M131.175 153.658C131.333 153.71 131.492 153.763 131.65 153.815C131.022 158.453 130.899 159.847 130.968 159.906C131.038 159.965 132.001 160.35 133.107 160.761C134.212 161.173 136.187 162.029 137.494 162.664C138.287 163.048 139.08 163.433 139.872 163.818C139.872 163.922 139.872 164.027 139.872 164.131C139.767 164.235 139.661 164.339 139.555 164.443C134.081 161.99 131.224 160.813 130.912 160.882C130.773 160.913 130.583 161.885 130.307 163.975C130.086 165.651 129.889 167.22 129.868 167.463C129.833 167.883 129.92 167.943 131.729 168.753C132.772 169.221 134.498 170.025 135.563 170.54C136.209 170.853 136.854 171.165 137.5 171.477C137.5 171.686 137.5 171.894 137.5 172.102C137.131 172.102 135.541 171.407 133.727 170.557C131.912 169.706 130.27 168.962 130.078 168.901C129.729 168.791 129.723 168.818 129.202 173.147C129.027 174.599 128.852 176.051 128.677 177.503C129.133 177.678 129.589 177.853 130.045 178.028C131.98 178.77 135.297 180.286 135.291 180.425C135.289 180.465 135.287 180.504 135.287 180.543C135.287 180.699 135.287 180.855 135.287 181.011C129.947 178.815 128.757 178.348 128.683 178.421C128.642 178.461 128.44 180.058 128.234 181.97C128.027 183.882 127.815 185.673 127.763 185.948C127.731 186.115 127.699 186.283 127.668 186.45C128.371 186.784 129.074 187.119 129.777 187.453C130.938 188.006 132.153 188.611 132.48 188.798C132.677 188.912 132.875 189.025 133.073 189.139C133.073 189.348 133.073 189.556 133.073 189.764C132.889 189.804 131.713 189.268 130.34 188.597C128.968 187.926 127.808 187.413 127.764 187.458C127.718 187.503 127.487 189.239 127.249 191.316C127.106 192.575 126.961 193.833 126.817 195.092C127.337 195.363 127.859 195.635 128.379 195.906C129.238 196.353 130.076 196.878 130.242 197.072C130.342 197.189 130.443 197.306 130.543 197.423C130.49 197.58 130.437 197.736 130.385 197.892C128.022 196.551 127.187 196.146 127.006 196.128C126.703 196.097 126.661 196.223 126.475 197.697C126.408 198.231 126.34 198.765 126.273 199.299C126.01 199.299 125.747 199.299 125.483 199.299C125.98 195.362 126.299 192.566 126.512 190.546C127.389 182.227 128.058 176.149 128.57 171.867C128.868 169.375 129.153 166.948 129.205 166.476C129.346 165.167 130.193 158.713 130.559 156.159C130.738 154.913 130.949 153.84 131.029 153.776C131.078 153.737 131.127 153.697 131.175 153.658Z" fill="#16172D"/>
<path id="18_8" d="M135.287 180.543C135.287 180.504 135.289 180.464 135.291 180.425C135.297 180.286 131.98 178.77 130.045 178.028C129.589 177.853 129.133 177.678 128.677 177.503C128.852 176.051 129.027 174.599 129.202 173.147C129.723 168.818 129.729 168.791 130.078 168.901C130.27 168.962 131.912 169.706 133.726 170.557C135.541 171.407 137.131 172.102 137.5 172.102C137.468 172.246 137.436 172.389 137.404 172.532C136.575 176.25 135.529 180.206 135.287 180.543Z" fill="#DCA051"/>
<path id="76_12" d="M30.4532 152.877C30.6115 152.773 30.7697 152.669 30.927 152.564C31.0713 152.667 31.2109 153.387 31.331 154.232C31.4511 155.077 31.9416 158.582 32.4228 162.021C33.5649 170.192 33.7074 171.173 34.2575 174.613C34.8681 178.436 35.865 185.135 36.5519 190.033C36.8554 192.2 37.3152 195.172 37.574 196.637C37.7304 197.524 37.8867 198.412 38.0431 199.299C37.7788 199.299 37.5153 199.299 37.2519 199.299C37.0825 198.238 36.9131 197.177 36.7437 196.117C35.932 196.516 35.1213 196.917 34.3096 197.317C33.4989 197.717 32.6872 198.117 31.8764 198.517C31.8234 198.413 31.7703 198.309 31.7182 198.205C31.8252 197.679 32.5271 197.262 34.2314 196.44C35.0282 196.057 35.824 195.673 36.6199 195.289C36.4207 193.978 36.2215 192.668 36.0223 191.357C35.8231 190.046 35.6239 188.736 35.4247 187.424C34.8392 187.628 34.2528 187.831 33.6673 188.034C32.7011 188.369 31.2258 188.93 30.3909 189.282C29.8845 189.495 29.3781 189.707 28.8718 189.921C28.7666 189.764 28.6614 189.608 28.5553 189.452C29.3232 188.831 31.4185 187.881 33.5882 187.172C34.1858 186.976 34.7825 186.781 35.38 186.586C35.3503 186.425 35.3195 186.264 35.2898 186.104C35.2404 185.839 34.9509 184.047 34.6484 182.122C34.345 180.197 34.0657 178.591 34.0276 178.553C33.9177 178.444 30.9075 179.528 28.4352 180.565C27.1944 181.086 26.0737 181.47 25.9443 181.418C25.8662 181.387 25.788 181.355 25.7098 181.324C25.7098 181.22 25.7098 181.116 25.7098 181.011C28.0284 179.783 31.5702 178.307 33.4765 177.774C33.6673 177.721 33.8582 177.668 34.049 177.614C33.9503 177.047 33.8516 176.481 33.753 175.913C33.5901 174.978 33.2783 173.092 33.0595 171.722C32.8408 170.353 32.6276 169.198 32.5848 169.156C32.4657 169.038 30.0576 169.979 26.7542 171.43C25.1113 172.152 23.6704 172.705 23.5521 172.658C23.4805 172.629 23.4097 172.6 23.3381 172.571C23.3381 172.467 23.3381 172.363 23.3381 172.259C24.6263 171.413 28.922 169.466 31.7871 168.429C32.0477 168.335 32.3074 168.241 32.568 168.147C32.3791 166.829 32.1892 165.511 32.0002 164.194C31.8113 162.875 31.6214 161.557 31.4324 160.24C31.2295 160.295 31.0266 160.35 30.8237 160.405C29.9469 160.643 26.5103 162.169 23.5354 163.641C22.679 164.065 21.8227 164.488 20.9654 164.912C20.9133 164.704 20.8602 164.496 20.8081 164.287C23.0551 162.782 30.1609 159.442 31.116 159.442C31.3189 159.442 31.2891 158.98 30.9028 156.159C30.7529 155.065 30.6031 153.971 30.4532 152.877Z" fill="#16172D"/>
<path id="18_9" d="M137.5 171.477C136.854 171.165 136.209 170.853 135.563 170.54C134.498 170.025 132.772 169.221 131.729 168.753C129.92 167.943 129.833 167.883 129.868 167.463C129.889 167.22 130.086 165.651 130.307 163.975C130.583 161.885 130.773 160.913 130.912 160.882C131.224 160.813 134.081 161.99 139.555 164.443C139.261 165.55 138.966 166.657 138.672 167.764C138.185 169.592 137.723 171.174 137.5 171.477Z" fill="#DCA051"/>
<path id="18_10" d="M131.65 153.815C138.162 157.021 140.121 158.033 140.205 158.133C140.303 158.25 140.303 158.671 140.203 159.308C140.118 159.855 140.01 161.092 139.96 162.06C139.931 162.646 139.902 163.232 139.872 163.818C139.08 163.433 138.287 163.048 137.494 162.664C136.187 162.029 134.212 161.173 133.107 160.761C132.001 160.35 131.038 159.965 130.968 159.906C130.899 159.847 131.022 158.453 131.65 153.815Z" fill="#DCA051"/>
<path id="18_11" d="M133.073 189.139C132.875 189.025 132.677 188.912 132.48 188.798C132.153 188.611 130.938 188.006 129.777 187.453C129.074 187.119 128.371 186.784 127.668 186.45C127.699 186.283 127.731 186.115 127.763 185.948C127.815 185.673 128.027 183.882 128.234 181.97C128.44 180.058 128.642 178.461 128.683 178.421C128.757 178.348 129.947 178.815 135.287 181.011C135.255 181.155 135.222 181.298 135.191 181.441C134.426 184.88 133.305 188.955 133.073 189.139Z" fill="#DCA051"/>
<path id="18_12" d="M31.7182 198.205C31.6102 197.995 31.5032 197.786 31.3961 197.577C30.8404 196.494 28.8718 190.523 28.8718 189.921C29.3781 189.707 29.8845 189.495 30.3909 189.282C31.2258 188.93 32.7011 188.369 33.6673 188.034C34.2528 187.831 34.8392 187.628 35.4247 187.424C35.6239 188.735 35.8231 190.046 36.0223 191.357C36.2215 192.668 36.4207 193.978 36.6199 195.289C35.824 195.673 35.0282 196.057 34.2314 196.44C32.5271 197.262 31.8253 197.679 31.7182 198.205Z" fill="#DCA051"/>
<path id="76_13" d="M99.5515 142.092C99.815 142.197 100.078 142.301 100.342 142.404C99.5981 147.358 98.5621 150.572 96.7535 153.543C93.5813 158.752 88.1788 161.517 81.2098 161.502C79.8378 161.5 78.3661 161.399 77.5461 161.253C73.4635 160.523 69.8827 158.684 67.5128 156.099C66.2534 154.726 65.3589 153.33 64.2233 150.966C63.1203 148.669 62.4882 146.88 61.7669 144.007C61.6068 143.369 61.4467 142.731 61.2866 142.092C61.603 141.988 61.9186 141.884 62.2351 141.78C63.2422 146.628 64.5016 149.814 66.6825 153.038C69.1864 156.738 72.0896 158.79 76.579 160.03C78.031 160.431 78.3159 160.457 81.2098 160.448C84.154 160.438 84.3783 160.415 86.1897 159.941C88.3073 159.386 90.2722 158.519 91.7141 157.501C93.6073 156.166 95.643 153.729 96.8429 151.362C97.8333 149.406 99.1625 145.043 99.464 142.757C99.4929 142.535 99.5227 142.314 99.5515 142.092Z" fill="#16172D"/>
<path id="18_13" d="M130.543 197.423C130.443 197.306 130.342 197.189 130.242 197.072C130.076 196.878 129.238 196.353 128.379 195.906C127.859 195.635 127.337 195.363 126.817 195.092C126.961 193.833 127.106 192.575 127.249 191.316C127.487 189.239 127.718 187.503 127.764 187.458C127.808 187.413 128.968 187.926 130.34 188.597C131.713 189.268 132.889 189.804 133.073 189.764C132.839 190.559 132.606 191.354 132.373 192.148C131.988 193.459 131.419 195.182 130.543 197.423Z" fill="#DCA051"/>
<path id="76_14" d="M80.8933 199.299C81.8343 196.089 83.0025 192.379 84.0962 188.982C86.7034 180.888 88.2728 175.838 89.6085 171.243C89.9716 169.992 90.3346 168.742 90.6985 167.491C90.8689 167.506 91.0401 167.521 91.2114 167.536C91.3827 167.551 91.553 167.567 91.7243 167.582C91.4972 168.374 91.2691 169.167 91.042 169.959C89.9548 173.743 87.4155 181.953 84.9395 189.686C84.2787 191.749 83.3469 194.756 82.8694 196.368C82.5799 197.345 82.2895 198.322 82 199.299C81.6314 199.299 81.2619 199.299 80.8933 199.299Z" fill="#16172D"/>
<path id="60" d="M63.5019 167.804C63.5698 168.062 63.6331 168.495 63.6424 168.767C63.6573 169.227 63.5754 169.306 62.4603 169.9C61.8013 170.252 61.16 170.539 61.0352 170.539C60.5242 170.539 59.3346 169.828 58.5183 169.034C57.7318 168.269 57.6498 168.124 57.6498 167.515C57.6498 166.25 59.4286 164.3 60.5912 164.291C61.6058 164.283 62.5497 164.899 62.5515 165.571C62.5525 165.682 62.7386 166.123 62.9657 166.554C63.1929 166.984 63.4339 167.546 63.5019 167.804Z" fill="#1C1D36"/>
<path id="60_2" d="M57.8155 170.38C58.4289 171.004 58.9092 171.62 58.8832 171.752C58.8562 171.886 58.63 172.011 58.3628 172.04C57.8891 172.089 57.0299 172.904 57.0215 173.314C57.0187 173.421 56.9387 173.509 56.8419 173.509C56.7451 173.509 56.7116 173.395 56.7665 173.252C56.8214 173.111 56.8242 172.865 56.773 172.707C56.7004 172.48 56.5887 172.591 56.2545 173.224C55.8292 174.028 55.4364 174.367 55.4364 173.929C55.4364 173.803 55.3433 173.664 55.2306 173.621C55.1171 173.578 54.8928 173.158 54.7308 172.688C54.4562 171.89 54.4543 171.81 54.6991 171.465C54.8434 171.262 54.9616 170.917 54.9616 170.699C54.9616 170.482 55.2185 169.903 55.5322 169.415C56.0395 168.625 56.1354 168.546 56.4016 168.71C56.5664 168.812 56.7013 168.974 56.7013 169.071C56.7013 169.168 57.203 169.757 57.8155 170.38Z" fill="#1C1D36"/>
<path id="18_14" d="M31.8764 198.517C32.6872 198.117 33.4988 197.717 34.3096 197.317C35.1213 196.917 35.932 196.516 36.7437 196.117C36.9131 197.177 37.0825 198.238 37.2519 199.299C35.4601 199.299 33.6683 199.299 31.8764 199.299C31.8764 199.038 31.8764 198.778 31.8764 198.517Z" fill="#DCA051"/>
<path id="18_15" d="M126.273 199.299C126.34 198.765 126.408 198.231 126.475 197.697C126.661 196.223 126.703 196.097 127.006 196.128C127.187 196.146 128.022 196.551 130.385 197.892C130.279 198.361 130.174 198.83 130.068 199.299C128.803 199.299 127.538 199.299 126.273 199.299Z" fill="#DCA051"/>
<path id="46" d="M45.9886 179.379C46.8998 179.101 47.0087 179.13 47.4602 179.775C47.7059 180.124 48.0615 180.531 48.2514 180.679C48.7857 181.094 48.6758 181.665 48.0298 181.831C47.3634 182.001 46.9985 181.743 47.1074 181.18C47.1493 180.961 47.0795 180.583 46.952 180.339C46.763 179.978 46.6774 179.931 46.4921 180.081C46.3162 180.227 46.212 180.225 46.0277 180.074C45.7391 179.837 45.7177 179.461 45.9886 179.379Z" fill="#DCA051"/>
<path id="60_3" d="M57.0262 174.6C57.312 174.26 57.4842 174.147 57.4869 174.298C57.4897 174.431 57.2021 174.818 56.8484 175.158C56.2285 175.753 56.1968 175.764 55.979 175.472C55.7463 175.16 55.6691 174.603 55.858 174.603C55.9167 174.603 56.101 174.725 56.2676 174.874C56.5571 175.133 56.5887 175.122 57.0262 174.6Z" fill="#1C1D36"/>
</g>
<g id="brown hair">
<path id="20" d="M55.5936 112.082C53.7367 111.287 52.6681 110.35 51.9709 108.907C51.256 107.427 50.9889 106.252 50.9321 104.345C50.8837 102.687 50.8586 102.582 50.2396 101.39C49.4363 99.8445 49.2082 98.7822 49.3078 97.0481C49.3786 95.8292 49.4623 95.5357 50.1269 94.1845C51.0028 92.4047 52.4866 90.7609 54.3938 89.4573C54.7941 89.1843 55.1943 88.9103 55.5936 88.6373C55.6392 88.6615 55.6849 88.6857 55.7295 88.7109C55.8049 88.751 56.6408 88.4463 57.5874 88.0325C59.3486 87.2638 61.6402 86.4689 63.1733 86.0962C63.6452 85.9815 64.0659 85.7849 64.1069 85.6601C64.1721 85.4634 63.9998 85.4672 62.8484 85.6834C61.173 85.9983 59.4575 86.5993 55.7519 88.1676C56.6073 86.3757 57.2766 85.2938 57.7913 84.6071C59.7563 81.9877 62.5636 80.3383 66.2273 79.6516C67.6161 79.3906 70.0194 79.3524 70.5761 79.5817C70.6943 79.6301 70.8134 79.6786 70.9316 79.728C70.8237 79.8966 70.7148 80.0662 70.6068 80.2358C70.4216 80.5256 70.3396 80.807 70.416 80.8918C70.496 80.9794 70.7045 80.7893 70.9298 80.4231C71.505 79.4857 73.0213 77.6742 75.0431 75.5077C77.2705 73.7931 79.3099 72.7886 81.4071 72.3739C81.6575 72.3245 81.9078 72.2751 82.1582 72.2248C82.1582 72.3021 82.1582 72.3785 82.1582 72.4559C82.1582 72.5826 81.9311 72.8025 81.6537 72.9442C80.9556 73.3011 77.0983 77.1729 75.5122 79.1083C74.7917 79.9879 74.062 80.7437 73.8916 80.7884C73.7139 80.8341 73.4374 81.1835 73.2447 81.6047C73.0251 82.0837 72.6053 82.5831 72.0384 83.036C71.5599 83.419 71.169 83.8318 71.169 83.9548C71.169 84.089 71.3952 84.2138 71.7387 84.2688C72.3828 84.3723 73.6031 85.0301 74.3766 85.6917C74.6624 85.9359 74.9686 86.1362 75.057 86.1362C75.2795 86.1362 76.1498 85.1746 76.1498 84.9286C76.1498 84.8195 76.0102 84.7291 75.8389 84.7291C75.6676 84.7291 75.4545 84.594 75.3651 84.4272C75.2748 84.2614 75.0412 84.1029 74.8457 84.0759C74.5581 84.0349 74.4948 83.9352 74.519 83.5569C74.5432 83.1804 74.8392 82.8273 76.0214 81.7668C78.3009 79.7214 83.9473 74.0978 83.8346 73.986C83.7788 73.9319 83.4325 74.1621 83.0649 74.4975C82.8415 74.7016 82.6181 74.9057 82.3956 75.1098C82.5343 74.9038 82.6739 74.697 82.8126 74.491C82.9522 74.2851 83.0909 74.0791 83.2305 73.8732C83.0891 73.7884 82.9476 73.7036 82.807 73.6188C82.3993 73.3737 82.363 73.3803 81.8753 73.7828C81.596 74.013 81.368 74.3196 81.368 74.464C81.368 74.6084 81.2786 74.723 81.1697 74.7184C80.8551 74.7072 81.5216 73.5778 82.1638 73.0355C82.7065 72.578 83.7658 72.2732 85.3193 72.1279C85.6227 72.099 85.8899 72.0039 85.9532 71.7561C90.7292 72.1484 92.5527 72.6944 94.2309 74.2338C95.3563 75.2654 96.4118 77.239 96.6055 78.6722C96.638 78.9201 96.6715 79.1679 96.7051 79.4149C96.5598 79.359 96.4156 79.3021 96.2704 79.2453C96.0311 79.1521 95.0529 78.8679 94.096 78.6144C92.0733 78.0777 89.0109 77.8578 87.4965 78.1401C86.5871 78.3097 84.5812 79.0235 84.3038 79.276C83.9687 79.5798 84.4052 79.564 85.6563 79.2257C86.7946 78.9182 87.3587 78.8679 89.669 78.8679C91.9691 78.8679 92.6709 78.9303 96.7051 79.728C104.615 81.7174 108.811 84.799 109.671 89.2504C109.886 90.3658 109.575 92.1065 108.868 93.7559C108.661 94.2376 108.455 94.7194 108.248 95.2012C108.097 94.9803 107.947 94.7585 107.797 94.5377C107.254 93.7391 105.211 91.7822 103.899 90.8057C102.727 89.9325 101.113 88.9494 100.853 88.9494C100.361 88.9494 100.785 89.4368 102.278 90.5904C103.168 91.2781 104.839 92.7383 108.09 95.8264C110.112 98.5437 111.429 102.608 111.088 105.081C110.722 107.737 109.343 109.732 107.032 110.95C106.507 111.226 105.712 111.524 105.265 111.611C104.994 111.664 104.724 111.717 104.453 111.769C104.347 111.769 104.242 111.769 104.137 111.769C104.214 111.627 104.29 111.483 104.368 111.34C104.494 111.103 104.601 110.678 104.605 110.394C104.607 110.222 104.609 110.05 104.611 109.879C103.978 109.935 103.346 109.993 102.713 110.05C98.3982 110.05 97.1258 109.556 94.5884 106.893C94.055 106.333 93.5226 105.774 92.9892 105.215C92.5145 105.291 92.0407 105.368 91.566 105.444C88.835 105.883 86.1794 105.696 85.1285 104.988C84.9553 104.872 84.7822 104.754 84.6091 104.638C84.6221 104.108 84.6351 103.577 84.6482 103.046C84.6612 102.515 84.6752 101.984 84.6882 101.454C84.8986 101.558 85.1099 101.662 85.3202 101.766C85.2383 101.823 85.1564 101.879 85.0745 101.936C84.9284 102.035 84.8474 102.275 84.8762 102.522C84.9237 102.925 84.9609 102.94 86.0714 102.985C87.3373 103.035 87.5309 102.882 86.6252 102.549C86.2427 102.407 86.13 102.313 86.5852 102.236C87.099 102.373 87.6128 102.51 88.1276 102.647C91.0345 103.424 94.2002 103.171 97.2403 101.92C98.5229 101.392 99.7367 100.426 99.4631 100.15C99.3449 100.031 99.1559 100.081 98.8106 100.324C98.0203 100.881 96.1103 101.565 94.3333 101.927C93.006 102.198 92.3405 102.25 91.0131 102.184C89.1859 102.094 88.0447 101.828 84.53 100.672C80.0453 99.2509 77.8216 97.8699 76.04 95.4015C75.6416 94.8508 75.2674 94.4566 75.2078 94.5274C75.1483 94.5973 75.0133 95.1816 74.9081 95.8264C74.802 96.4713 74.4622 97.7022 74.1523 98.5623C73.3359 100.826 73.3369 100.834 74.4827 100.916C75.0003 100.953 75.5494 101.023 75.7021 101.072C76.0623 101.185 76.2224 101.966 76.2252 103.642C76.2261 104.084 76.228 104.528 76.2289 104.971C76.0437 105.066 75.8594 105.161 75.6751 105.257C75.1752 105.515 74.8281 105.533 72.0784 105.451C71.0629 105.422 70.0492 105.392 69.0346 105.361C69.0998 105.327 69.1659 105.292 69.232 105.258C69.6685 105.028 71.0796 103.808 72.2618 102.637C73.3294 101.581 73.4914 101.351 73.3685 101.075C73.2363 100.776 73.1302 100.844 72.0384 101.93C71.3859 102.579 70.2968 103.518 69.6164 104.017C68.8085 104.611 68.4119 105 68.5599 105.361C68.1057 105.361 67.7501 105.537 67.4765 105.752C67.3108 105.882 67.1442 106.012 66.9785 106.143C66.5698 106.251 66.1612 106.359 65.7535 106.467C63.3585 107.101 60.9524 106.583 58.7742 104.963C58.1441 104.494 57.5446 104.114 57.4413 104.119C56.9992 104.137 57.9477 105.487 58.8515 106.128C60.5158 107.305 61.4932 107.481 65.8717 107.393C63.4181 110.459 62.3002 111.262 59.5468 111.937C58.4857 112.197 57.9291 112.247 56.8986 112.175C56.464 112.144 56.0293 112.113 55.5936 112.082ZM49.9361 95.3577C49.7602 95.8311 49.6103 96.3492 49.601 96.5104C49.5768 96.9567 50.0004 96.5486 50.1111 96.0184C50.1595 95.7845 50.5216 95.0996 50.9144 94.4986C51.7103 93.2788 51.6814 93.316 52.9455 91.786C54.1788 90.2932 54.1993 89.9279 52.9948 90.9035C52.1645 91.5763 50.368 94.192 49.9361 95.3577ZM56.6538 86.8398C56.4416 87.247 56.4397 87.315 56.6417 87.3607C56.9657 87.4324 59.72 86.2592 59.6576 86.0747C59.5878 85.866 58.0045 85.7905 57.8807 85.9899C57.8108 86.1008 57.7168 86.0999 57.5809 85.9881C57.3529 85.8008 57.0513 86.0775 56.6538 86.8398ZM62.9462 91.9975C61.7752 93.2872 60.8155 94.3942 60.8146 94.4594C60.8062 94.8704 61.5481 94.2274 64.2111 91.5111C65.8643 89.8263 67.2391 88.3503 67.267 88.2301C67.2949 88.1099 67.3731 88.012 67.4411 88.012C67.6282 88.012 69.2413 86.1325 69.1398 86.0319C68.841 85.7374 67.1665 87.3495 62.9462 91.9975ZM62.4705 91.3676C61.6579 92.1755 61.4569 92.4606 61.6021 92.5995C61.8664 92.8492 64.9232 89.6595 64.9232 89.133C64.9232 89.0128 64.9232 88.8917 64.9232 88.7705C64.7817 88.8805 64.6403 88.9904 64.4988 89.1004C64.2651 89.2821 63.9514 89.6297 63.8016 89.8738C63.6517 90.117 63.0532 90.7898 62.4705 91.3676ZM63.8016 94.6365C63.2878 95.4006 62.868 96.0864 62.868 96.161C62.868 96.5095 63.2645 96.1787 64.5379 94.7716C66.3269 92.7924 67.0995 91.7384 67.8032 90.3174C67.9623 89.995 68.142 89.7313 68.2006 89.7313C68.2602 89.7313 68.5739 89.9866 68.8978 90.2988C69.272 90.6603 69.5764 90.8327 69.7346 90.7731C70.0734 90.6445 70.0483 90.3565 69.6983 90.3565C69.0775 90.3565 68.8429 89.7294 69.2841 89.2476C69.5149 88.996 69.5056 88.9588 69.1659 88.7826C68.963 88.6764 68.7582 88.5311 68.7098 88.4593C68.6623 88.3876 67.8078 89.0836 66.8109 90.0071C65.814 90.9296 64.6868 91.9388 64.3052 92.2491C63.8807 92.5948 63.6573 92.8846 63.7271 92.9983C63.9133 93.2946 64.4708 93.0328 65.2276 92.2929C66.1407 91.4011 66.2571 91.5381 65.4017 92.4979C65.0349 92.9107 64.3145 93.8724 63.8016 94.6365ZM71.613 84.417C71.2351 84.417 71.3971 84.7198 72.42 85.9275C73.6831 87.4166 74.1402 88.3307 74.7257 90.5345C74.9788 91.4887 75.219 92.3013 75.259 92.3413C75.4173 92.497 75.5541 90.5606 75.4824 89.2048C75.3968 87.602 75.1017 86.8547 74.2267 86.0291C73.631 85.4672 71.9286 84.417 71.613 84.417ZM75.8343 83.4003C75.6267 83.5271 75.6313 83.7461 75.8436 83.8765C76.0791 84.02 76.2075 83.8532 76.0912 83.5541C76.0372 83.4162 75.9218 83.3463 75.8343 83.4003ZM78.219 81.0474C78.1241 81.1052 78.0468 81.2152 78.0468 81.2907C78.0468 81.532 78.3847 81.6448 78.5671 81.4649C78.6258 81.4071 78.6844 81.3484 78.7431 81.2907C78.6844 81.2329 78.6258 81.1751 78.5671 81.1164C78.4703 81.0214 78.313 80.9897 78.219 81.0474ZM89.4614 104.977C89.3469 105.015 89.3004 105.122 89.3581 105.215C89.4279 105.326 89.8226 105.346 90.5151 105.274C91.5586 105.168 92.0901 104.95 91.8499 104.726C91.7364 104.622 89.9743 104.807 89.4614 104.977Z" fill="#85402F"/>
<path id="78" d="M82.1582 72.2248C83.4232 72.0692 84.6882 71.9126 85.9532 71.7561C85.8899 72.0039 85.6227 72.099 85.3193 72.1279C83.7658 72.2732 82.7065 72.5779 82.1638 73.0355C81.5216 73.5778 80.8551 74.7072 81.1697 74.7184C81.2786 74.723 81.368 74.6084 81.368 74.464C81.368 74.3195 81.596 74.013 81.8753 73.7828C82.363 73.3803 82.3993 73.3737 82.807 73.6188C82.9476 73.7036 83.0891 73.7884 83.2305 73.8732C83.0909 74.0791 82.9522 74.2851 82.8126 74.491C82.6739 74.6969 82.5343 74.9038 82.3956 75.1097C82.6181 74.9057 82.8415 74.7016 83.0649 74.4975C83.4325 74.1621 83.7788 73.9319 83.8346 73.9859C83.9473 74.0978 78.3009 79.7214 76.0214 81.7668C74.8392 82.8272 74.5432 83.1804 74.519 83.5569C74.4948 83.9352 74.5581 84.0349 74.8457 84.0759C75.0412 84.1029 75.2748 84.2613 75.3651 84.4272C75.4545 84.594 75.6676 84.7291 75.8389 84.7291C76.0102 84.7291 76.1498 84.8195 76.1498 84.9285C76.1498 85.1746 75.2795 86.1362 75.057 86.1362C74.9686 86.1362 74.6624 85.9359 74.3766 85.6917C73.6031 85.0301 72.3828 84.3722 71.7387 84.2688C71.3952 84.2138 71.169 84.089 71.169 83.9548C71.169 83.8318 71.5599 83.419 72.0384 83.036C72.6053 82.5831 73.0251 82.0836 73.2447 81.6047C73.4374 81.1835 73.7139 80.834 73.8917 80.7884C74.062 80.7437 74.7917 79.9879 75.5122 79.1083C77.0983 77.1728 80.9556 73.301 81.6537 72.9442C81.9311 72.8025 82.1582 72.5826 82.1582 72.4559C82.1582 72.3785 82.1582 72.3021 82.1582 72.2248Z" fill="#904F33"/>
<path id="50" d="M63.8016 94.6365C64.3145 93.8723 65.0349 92.9107 65.4017 92.4979C66.2571 91.5381 66.1407 91.4011 65.2276 92.2929C64.4708 93.0328 63.9133 93.2946 63.7271 92.9983C63.6573 92.8846 63.8807 92.5948 64.3052 92.2491C64.6868 91.9388 65.814 90.9296 66.8109 90.0071C67.8078 89.0836 68.6623 88.3875 68.7098 88.4593C68.7582 88.531 68.963 88.6764 69.1659 88.7826C69.5056 88.9588 69.5149 88.996 69.2841 89.2476C68.8429 89.7294 69.0775 90.3565 69.6983 90.3565C70.0483 90.3565 70.0734 90.6445 69.7346 90.773C69.5764 90.8327 69.272 90.6603 68.8978 90.2987C68.5739 89.9866 68.2602 89.7313 68.2006 89.7313C68.142 89.7313 67.9623 89.995 67.8032 90.3174C67.0995 91.7384 66.3269 92.7923 64.5379 94.7716C63.2645 96.1787 62.868 96.5095 62.868 96.1609C62.868 96.0864 63.2878 95.4006 63.8016 94.6365Z" fill="#A8603F"/>
<path id="76_15" d="M84.6882 101.454C84.6351 101.193 84.583 100.933 84.53 100.672C88.0447 101.828 89.1859 102.094 91.0131 102.184C92.3405 102.25 93.006 102.198 94.3333 101.927C96.1103 101.565 98.0203 100.881 98.8106 100.324C99.1559 100.081 99.3449 100.031 99.4631 100.15C99.7367 100.426 98.523 101.392 97.2403 101.92C94.2002 103.171 91.0345 103.424 88.1276 102.647C87.6128 102.51 87.099 102.373 86.5852 102.236C86.454 102.003 86.1701 101.896 85.8685 101.851C85.686 101.823 85.5036 101.795 85.3202 101.766C85.1099 101.662 84.8986 101.558 84.6882 101.454Z" fill="#16172D"/>
<path id="76_16" d="M66.9785 106.143C66.6099 106.559 66.2403 106.976 65.8717 107.393C61.4932 107.481 60.5158 107.305 58.8515 106.128C57.9477 105.487 56.9992 104.137 57.4413 104.119C57.5446 104.114 58.1441 104.494 58.7742 104.963C60.9524 106.583 63.3585 107.101 65.7535 106.467C66.1612 106.359 66.5698 106.251 66.9785 106.143Z" fill="#16172D"/>
<path id="76_17" d="M71.613 84.417C71.9286 84.417 73.631 85.4672 74.2267 86.0291C75.1017 86.8547 75.3968 87.602 75.4824 89.2048C75.5541 90.5606 75.4173 92.497 75.259 92.3413C75.219 92.3013 74.9788 91.4887 74.7257 90.5345C74.1402 88.3307 73.6831 87.4166 72.42 85.9275C71.3971 84.7198 71.2351 84.417 71.613 84.417Z" fill="#16172D"/>
<path id="76_18" d="M96.7051 79.4149C96.7051 79.5192 96.7051 79.6236 96.7051 79.728C92.6709 78.9303 91.9691 78.8679 89.669 78.8679C87.3587 78.8679 86.7946 78.9182 85.6563 79.2257C84.4052 79.564 83.9687 79.5798 84.3038 79.276C84.5812 79.0235 86.5871 78.3097 87.4965 78.1401C89.0109 77.8578 92.0733 78.0777 94.096 78.6144C95.0529 78.8679 96.0311 79.1521 96.2704 79.2453C96.4156 79.3021 96.5598 79.359 96.7051 79.4149Z" fill="#16172D"/>
<path id="76_19" d="M108.248 95.2012C108.195 95.4099 108.142 95.6186 108.09 95.8264C104.839 92.7383 103.168 91.2781 102.278 90.5904C100.785 89.4368 100.361 88.9494 100.853 88.9494C101.113 88.9494 102.727 89.9325 103.899 90.8057C105.211 91.7822 107.254 93.7391 107.797 94.5377C107.947 94.7585 108.097 94.9803 108.248 95.2012Z" fill="#16172D"/>
<path id="59" d="M55.5936 88.6373C55.6467 88.4807 55.6998 88.3242 55.7519 88.1676C59.4575 86.5994 61.173 85.9983 62.8484 85.6834C63.9999 85.4672 64.1721 85.4634 64.1069 85.6601C64.0659 85.7849 63.6452 85.9815 63.1733 86.0962C61.6402 86.4689 59.3486 87.2638 57.5875 88.0325C56.6408 88.4463 55.8049 88.751 55.7295 88.7109C55.6849 88.6857 55.6393 88.6615 55.5936 88.6373Z" fill="#19171A"/>
<path id="50_2" d="M62.9462 91.9975C67.1665 87.3495 68.841 85.7374 69.1398 86.0319C69.2413 86.1325 67.6282 88.012 67.4411 88.012C67.3731 88.012 67.2949 88.1099 67.267 88.2301C67.2391 88.3503 65.8643 89.8263 64.2111 91.5111C61.5481 94.2274 60.8062 94.8703 60.8146 94.4594C60.8155 94.3942 61.7752 93.2872 62.9462 91.9975Z" fill="#A8603F"/>
<path id="66" d="M69.0347 105.361C68.8764 105.361 68.7182 105.361 68.5599 105.361C68.4119 105 68.8085 104.611 69.6164 104.017C70.2969 103.518 71.3859 102.579 72.0384 101.93C73.1303 100.844 73.2364 100.776 73.3686 101.075C73.4914 101.351 73.3295 101.581 72.2618 102.637C71.0797 103.808 69.6686 105.028 69.232 105.258C69.1659 105.292 69.0998 105.327 69.0347 105.361Z" fill="#2D2424"/>
<path id="78_2" d="M49.9361 95.3577C50.368 94.192 52.1645 91.5763 52.9948 90.9035C54.1993 89.9279 54.1788 90.2932 52.9455 91.786C51.6814 93.316 51.7103 93.2788 50.9144 94.4985C50.5216 95.0996 50.1595 95.7845 50.1111 96.0184C50.0004 96.5486 49.5768 96.9567 49.601 96.5104C49.6103 96.3492 49.7602 95.8311 49.9361 95.3577Z" fill="#904F33"/>
<path id="78_3" d="M56.6538 86.8398C57.0513 86.0775 57.3529 85.8008 57.5809 85.9881C57.7168 86.0999 57.8108 86.1008 57.8807 85.9899C58.0045 85.7905 59.5878 85.866 59.6576 86.0747C59.72 86.2592 56.9657 87.4324 56.6417 87.3607C56.4398 87.315 56.4416 87.247 56.6538 86.8398Z" fill="#904F33"/>
<path id="54" d="M86.5852 102.236C86.1301 102.313 86.2427 102.407 86.6253 102.549C87.5309 102.882 87.3373 103.035 86.0714 102.985C84.961 102.94 84.9237 102.925 84.8762 102.522C84.8474 102.275 84.9284 102.035 85.0745 101.936C85.1564 101.879 85.2383 101.823 85.3202 101.766C85.5036 101.795 85.6861 101.823 85.8685 101.851C86.1701 101.896 86.454 102.003 86.5852 102.236Z" fill="#672D21"/>
<path id="78_4" d="M62.4705 91.3676C63.0532 90.7898 63.6517 90.117 63.8016 89.8738C63.9515 89.6297 64.2651 89.2821 64.4988 89.1004C64.6403 88.9905 64.7817 88.8805 64.9232 88.7705C64.9232 88.8917 64.9232 89.0128 64.9232 89.133C64.9232 89.6595 61.8664 92.8492 61.6021 92.5995C61.4569 92.4606 61.6579 92.1755 62.4705 91.3676Z" fill="#904F33"/>
<path id="70" d="M89.4615 104.977C89.9743 104.807 91.7364 104.622 91.8499 104.726C92.0901 104.95 91.5586 105.168 90.5151 105.274C89.8226 105.346 89.4279 105.326 89.3581 105.215C89.3004 105.122 89.347 105.015 89.4615 104.977Z" fill="#703B2F"/>
<path id="78_5" d="M78.219 81.0475C78.313 80.9897 78.4703 81.0214 78.5672 81.1164C78.6258 81.1751 78.6844 81.2329 78.7431 81.2907C78.6844 81.3484 78.6258 81.4071 78.5672 81.4649C78.3847 81.6448 78.0468 81.532 78.0468 81.2907C78.0468 81.2152 78.1241 81.1052 78.219 81.0475Z" fill="#904F33"/>
<path id="78_6" d="M75.8343 83.4003C75.9218 83.3463 76.0372 83.4162 76.0912 83.5541C76.2075 83.8532 76.0791 84.02 75.8436 83.8765C75.6314 83.746 75.6267 83.5271 75.8343 83.4003Z" fill="#904F33"/>
</g>
<g id="a tag">
<path id="18_16" d="M99.3933 199.299C99.2118 198.921 99.0312 198.543 98.8497 198.166C97.4209 195.186 97.0132 193.11 96.9052 188.261C96.8782 187.056 96.8512 185.852 96.8242 184.648C97.2394 184.59 97.6545 184.531 98.0697 184.472C102.401 183.862 107.402 183.795 111.337 184.294C114.349 184.676 115.989 185.031 116.103 185.327C116.225 185.64 115.867 189.46 115.585 190.858C115.139 193.067 114.384 195.144 112.517 199.299C108.142 199.299 103.768 199.299 99.3933 199.299ZM102.37 189.149C102.027 189.782 102.001 190.524 102.297 191.215C102.998 192.855 105.162 192.787 106.014 191.099C106.436 190.264 106.387 189.583 105.858 188.917C104.892 187.703 103.09 187.822 102.37 189.149ZM107.547 192.823C107.226 193.141 107.235 193.253 107.605 193.584C107.827 193.782 108.043 193.829 108.395 193.753C108.961 193.63 109.007 193.396 108.558 192.92C108.176 192.515 107.887 192.487 107.547 192.823Z" fill="#DCA051"/>
<path id="76_20" d="M98.1283 199.299C97.1826 196.937 96.7916 195.825 96.6492 195.304C96.1317 193.416 95.9204 191.174 95.9176 187.553C95.9167 186.373 95.9157 185.194 95.9148 184.013C96.2508 183.955 96.5869 183.897 96.9238 183.84C100.768 183.178 101.229 183.141 105.639 183.135C110.223 183.13 112.158 183.312 115.472 184.065C117.261 184.471 117.178 184.298 116.973 187.205C116.685 191.276 116.096 193.772 114.56 197.441C114.301 198.06 114.042 198.679 113.782 199.299C113.36 199.299 112.939 199.299 112.517 199.299C114.384 195.144 115.139 193.067 115.585 190.858C115.867 189.46 116.225 185.64 116.103 185.327C115.989 185.031 114.349 184.676 111.337 184.294C107.402 183.795 102.401 183.862 98.0697 184.472C97.6545 184.531 97.2394 184.59 96.8242 184.648C96.8512 185.852 96.8782 187.056 96.9052 188.261C97.0132 193.11 97.4209 195.186 98.8497 198.166C99.0312 198.543 99.2118 198.921 99.3933 199.299C98.9716 199.299 98.55 199.299 98.1283 199.299Z" fill="#16172D"/>
<path id="55" d="M102.37 189.149C103.09 187.822 104.892 187.703 105.858 188.917C106.387 189.583 106.436 190.264 106.014 191.099C105.162 192.787 102.998 192.855 102.296 191.215C102 190.524 102.027 189.782 102.37 189.149Z" fill="#DCA051"/>
<path id="37" d="M107.547 192.823C107.887 192.487 108.176 192.515 108.558 192.92C109.007 193.396 108.961 193.63 108.395 193.753C108.043 193.829 107.826 193.782 107.605 193.584C107.234 193.253 107.226 193.141 107.547 192.823Z" fill="#DCA051"/>
</g>
</g>
</g>
<defs>
<linearGradient id="paint0_linear_8_23" x1="241.5" y1="0" x2="241.5" y2="307" gradientUnits="userSpaceOnUse">
<stop stop-color="#C9B7FF"/>
<stop offset="1" stop-color="#784BFF"/>
</linearGradient>
<clipPath id="clip0_8_23">
<rect width="483" height="251" fill="white"/>
</clipPath>
</defs>
</svg>
