<svg width="1536" height="1024" viewBox="0 0 1536 1024" fill="none" xmlns="http://www.w3.org/2000/svg">
<g id="&#208;&#161;&#209;&#130;&#208;&#176;&#209;&#128;&#209;&#139;&#208;&#185; &#208;&#176;&#208;&#177;&#208;&#190;&#208;&#189;&#208;&#181;&#208;&#188;&#208;&#181;&#208;&#189;&#209;&#130;">
<rect width="1536" height="1024" fill="white"/>
<rect id="Rectangle 25" x="60" y="828" width="109" height="109" stroke="black" stroke-width="6"/>
<rect id="Rectangle 26" x="202" y="828" width="109" height="109" stroke="black" stroke-width="6"/>
<rect id="Rectangle 27" x="344" y="828" width="109" height="109" stroke="black" stroke-width="6"/>
<rect id="Rectangle 28" x="486" y="828" width="109" height="109" stroke="black" stroke-width="6"/>
<rect id="Rectangle 29" x="628" y="828" width="109" height="109" stroke="black" stroke-width="6"/>
<rect id="Rectangle 30" x="770" y="828" width="109" height="109" stroke="black" stroke-width="6"/>
<rect id="Rectangle 31" x="912" y="828" width="109" height="109" stroke="black" stroke-width="6"/>
<rect id="Rectangle 32" x="1054" y="828" width="109" height="109" stroke="black" stroke-width="6"/>
<rect id="Rectangle 33" x="1196" y="828" width="109" height="109" stroke="black" stroke-width="6"/>
<rect id="Rectangle 34" x="1338" y="828" width="109" height="109" stroke="black" stroke-width="6"/>
<g id="Group 6">
<path id="&#208;&#144;&#208;&#145;&#208;&#158;&#208;&#157;&#208;&#149;&#208;&#156;&#208;&#149;&#208;&#157;&#208;&#162;" d="M56.1558 156.589L91.3082 77.7211H109.335L144.6 156.589H125.447L96.6036 86.9599H103.814L74.8587 156.589H56.1558ZM73.732 139.689L78.5767 125.83H119.137L124.095 139.689H73.732ZM156.636 156.589V77.7211H220.294V92.2553H174.776V108.479H196.634C206.173 108.479 213.421 110.47 218.378 114.451C223.411 118.432 225.927 124.215 225.927 131.802C225.927 139.613 223.148 145.698 217.59 150.054C212.031 154.411 204.182 156.589 194.042 156.589H156.636ZM174.776 143.069H193.028C197.685 143.069 201.253 142.167 203.732 140.365C206.21 138.487 207.45 135.783 207.45 132.252C207.45 125.342 202.642 121.887 193.028 121.887H174.776V143.069ZM279.138 157.941C272.904 157.941 267.12 156.927 261.787 154.899C256.53 152.871 251.948 150.016 248.042 146.336C244.211 142.655 241.207 138.337 239.028 133.379C236.925 128.422 235.874 123.014 235.874 117.155C235.874 111.296 236.925 105.888 239.028 100.931C241.207 95.9733 244.249 91.6544 248.155 87.9739C252.06 84.2934 256.642 81.4392 261.9 79.4111C267.158 77.3831 272.866 76.3691 279.026 76.3691C285.26 76.3691 290.968 77.3831 296.151 79.4111C301.409 81.4392 305.953 84.2934 309.784 87.9739C313.69 91.6544 316.732 95.9733 318.91 100.931C321.088 105.813 322.177 111.221 322.177 117.155C322.177 123.014 321.088 128.459 318.91 133.492C316.732 138.449 313.69 142.768 309.784 146.449C305.953 150.054 301.409 152.871 296.151 154.899C290.968 156.927 285.297 157.941 279.138 157.941ZM279.026 142.393C282.556 142.393 285.786 141.792 288.715 140.59C291.72 139.388 294.348 137.661 296.602 135.407C298.855 133.154 300.583 130.487 301.785 127.408C303.061 124.328 303.7 120.911 303.7 117.155C303.7 113.399 303.061 109.982 301.785 106.902C300.583 103.823 298.855 101.156 296.602 98.9027C294.424 96.6493 291.832 94.9218 288.828 93.72C285.823 92.5182 282.556 91.9173 279.026 91.9173C275.495 91.9173 272.228 92.5182 269.223 93.72C266.294 94.9218 263.703 96.6493 261.449 98.9027C259.196 101.156 257.431 103.823 256.154 106.902C254.952 109.982 254.351 113.399 254.351 117.155C254.351 120.835 254.952 124.253 256.154 127.408C257.431 130.487 259.158 133.154 261.337 135.407C263.59 137.661 266.219 139.388 269.223 140.59C272.228 141.792 275.495 142.393 279.026 142.393ZM391.896 156.589V77.7211H410.148V156.589H391.896ZM337.815 156.589V77.7211H356.068V156.589H337.815ZM354.716 124.253V108.818H393.248V124.253H354.716ZM431.486 156.589V77.7211H491.087V92.368H449.625V141.942H492.552V156.589H431.486ZM448.273 123.69V109.494H486.242V123.69H448.273ZM508.872 156.589V77.7211H523.97L557.545 133.379H549.545L582.557 77.7211H597.654L597.767 156.589H580.642L580.529 103.973H583.796L557.319 148.251H549.207L522.167 103.973H525.998V156.589H508.872ZM618.936 156.589V77.7211H678.538V92.368H637.076V141.942H680.003V156.589H618.936ZM635.724 123.69V109.494H673.693V123.69H635.724ZM750.403 156.589V77.7211H768.656V156.589H750.403ZM696.323 156.589V77.7211H714.575V156.589H696.323ZM713.223 124.253V108.818H751.755V124.253H713.223ZM807.006 156.589V88.4246L811.175 92.5933H781.881V77.7211H850.27V92.5933H820.977L825.033 88.4246V156.589H807.006Z" fill="black"/>
<path id="&#208;&#156;&#208;&#181;&#209;&#129;&#209;&#143;&#209;&#134;" d="M558.766 616.573V579.835H565.799L581.439 605.761H577.713L593.09 579.835H600.123L600.175 616.573H592.198L592.145 592.063H593.667L581.334 612.689H577.555L564.959 592.063H566.744V616.573H558.766ZM623.21 616.993C619.991 616.993 617.157 616.363 614.707 615.103C612.293 613.844 610.421 612.129 609.092 609.96C607.762 607.756 607.097 605.254 607.097 602.455C607.097 599.621 607.745 597.119 609.039 594.95C610.369 592.746 612.171 591.031 614.445 589.806C616.719 588.547 619.291 587.917 622.16 587.917C624.924 587.917 627.408 588.512 629.613 589.701C631.852 590.856 633.619 592.536 634.913 594.74C636.208 596.909 636.855 599.516 636.855 602.56C636.855 602.875 636.838 603.242 636.803 603.662C636.768 604.047 636.733 604.414 636.698 604.764H613.763V599.988H632.394L629.245 601.405C629.245 599.936 628.948 598.659 628.353 597.574C627.758 596.489 626.936 595.65 625.886 595.055C624.837 594.425 623.612 594.11 622.213 594.11C620.813 594.11 619.571 594.425 618.486 595.055C617.437 595.65 616.614 596.507 616.02 597.626C615.425 598.711 615.127 600.006 615.127 601.51V602.77C615.127 604.309 615.46 605.674 616.124 606.863C616.824 608.018 617.786 608.91 619.011 609.54C620.271 610.135 621.74 610.432 623.42 610.432C624.924 610.432 626.236 610.205 627.356 609.75C628.511 609.295 629.56 608.613 630.505 607.703L634.861 612.427C633.566 613.896 631.939 615.033 629.98 615.838C628.021 616.608 625.764 616.993 623.21 616.993ZM657.302 616.993C654.258 616.993 651.546 616.38 649.167 615.156C646.788 613.896 644.916 612.164 643.551 609.96C642.221 607.756 641.557 605.254 641.557 602.455C641.557 599.621 642.221 597.119 643.551 594.95C644.916 592.746 646.788 591.031 649.167 589.806C651.546 588.547 654.258 587.917 657.302 587.917C660.276 587.917 662.865 588.547 665.069 589.806C667.273 591.031 668.9 592.798 669.95 595.107L663.6 598.519C662.865 597.189 661.938 596.209 660.818 595.58C659.733 594.95 658.544 594.635 657.249 594.635C655.85 594.635 654.59 594.95 653.47 595.58C652.351 596.209 651.459 597.102 650.794 598.256C650.164 599.411 649.849 600.81 649.849 602.455C649.849 604.099 650.164 605.499 650.794 606.654C651.459 607.808 652.351 608.7 653.47 609.33C654.59 609.96 655.85 610.275 657.249 610.275C658.544 610.275 659.733 609.977 660.818 609.383C661.938 608.753 662.865 607.756 663.6 606.391L669.95 609.855C668.9 612.129 667.273 613.896 665.069 615.156C662.865 616.38 660.276 616.993 657.302 616.993ZM692.786 616.573V607.178L693.94 608.49H686.12C682.062 608.49 678.878 607.651 676.568 605.971C674.259 604.292 673.104 601.878 673.104 598.729C673.104 595.37 674.312 592.798 676.726 591.014C679.175 589.229 682.464 588.337 686.593 588.337H700.081V616.573H692.786ZM672.685 616.573L680.19 605.814H688.534L681.397 616.573H672.685ZM692.786 604.659V592.903L693.94 595.002H686.75C685.071 595.002 683.759 595.317 682.814 595.947C681.904 596.577 681.449 597.591 681.449 598.991C681.449 601.685 683.181 603.032 686.645 603.032H693.94L692.786 604.659ZM708.684 616.573V588.337H716.819V609.855H728.208V588.337H736.395V616.573H708.684ZM732.879 622.661V616.468L734.768 616.573H728.208V609.855H740.489V622.661H732.879Z" fill="black"/>
<path id="&#208;&#161;&#208;&#191;&#208;&#184;&#209;&#129;&#208;&#190;&#208;&#186;" d="M1006.05 620.293C1003.22 620.293 1000.57 619.838 998.125 618.929C995.711 617.984 993.611 616.654 991.827 614.94C990.043 613.225 988.643 611.214 987.628 608.904C986.649 606.595 986.159 604.058 986.159 601.294C986.159 598.53 986.649 595.993 987.628 593.684C988.643 591.375 990.043 589.363 991.827 587.649C993.646 585.934 995.763 584.622 998.177 583.712C1000.59 582.768 1003.23 582.295 1006.1 582.295C1009.29 582.295 1012.16 582.855 1014.71 583.975C1017.3 585.059 1019.47 586.669 1021.22 588.803L1015.76 593.842C1014.5 592.407 1013.1 591.34 1011.56 590.64C1010.02 589.905 1008.34 589.538 1006.52 589.538C1004.81 589.538 1003.23 589.818 1001.8 590.378C1000.36 590.938 999.122 591.742 998.072 592.792C997.023 593.842 996.201 595.084 995.606 596.518C995.046 597.953 994.766 599.545 994.766 601.294C994.766 603.044 995.046 604.636 995.606 606.07C996.201 607.505 997.023 608.747 998.072 609.796C999.122 610.846 1000.36 611.651 1001.8 612.211C1003.23 612.771 1004.81 613.05 1006.52 613.05C1008.34 613.05 1010.02 612.701 1011.56 612.001C1013.1 611.266 1014.5 610.164 1015.76 608.694L1021.22 613.733C1019.47 615.867 1017.3 617.494 1014.71 618.614C1012.16 619.733 1009.27 620.293 1006.05 620.293ZM1026.86 619.663V591.427H1054.94V619.663H1046.76V596.308L1048.59 598.145H1033.16L1035 596.308V619.663H1026.86ZM1063.53 619.663V591.427H1071.66V608.222L1085.41 591.427H1092.92V619.663H1084.78V602.869L1071.08 619.663H1063.53ZM1114.96 620.083C1111.91 620.083 1109.2 619.471 1106.82 618.246C1104.44 616.987 1102.57 615.255 1101.21 613.05C1099.88 610.846 1099.21 608.344 1099.21 605.545C1099.21 602.711 1099.88 600.21 1101.21 598.04C1102.57 595.836 1104.44 594.122 1106.82 592.897C1109.2 591.637 1111.91 591.008 1114.96 591.008C1117.93 591.008 1120.52 591.637 1122.73 592.897C1124.93 594.122 1126.56 595.888 1127.61 598.198L1121.26 601.609C1120.52 600.28 1119.59 599.3 1118.48 598.67C1117.39 598.04 1116.2 597.725 1114.91 597.725C1113.51 597.725 1112.25 598.04 1111.13 598.67C1110.01 599.3 1109.12 600.192 1108.45 601.347C1107.82 602.501 1107.51 603.901 1107.51 605.545C1107.51 607.19 1107.82 608.589 1108.45 609.744C1109.12 610.899 1110.01 611.791 1111.13 612.421C1112.25 613.05 1113.51 613.365 1114.91 613.365C1116.2 613.365 1117.39 613.068 1118.48 612.473C1119.59 611.843 1120.52 610.846 1121.26 609.482L1127.61 612.945C1126.56 615.22 1124.93 616.987 1122.73 618.246C1120.52 619.471 1117.93 620.083 1114.96 620.083ZM1146.18 620.083C1143.18 620.083 1140.5 619.453 1138.15 618.194C1135.84 616.934 1134.01 615.22 1132.64 613.05C1131.31 610.846 1130.65 608.344 1130.65 605.545C1130.65 602.711 1131.31 600.21 1132.64 598.04C1134.01 595.836 1135.84 594.122 1138.15 592.897C1140.5 591.637 1143.18 591.008 1146.18 591.008C1149.16 591.008 1151.82 591.637 1154.16 592.897C1156.51 594.122 1158.34 595.818 1159.67 597.988C1161 600.157 1161.67 602.676 1161.67 605.545C1161.67 608.344 1161 610.846 1159.67 613.05C1158.34 615.22 1156.51 616.934 1154.16 618.194C1151.82 619.453 1149.16 620.083 1146.18 620.083ZM1146.18 613.365C1147.55 613.365 1148.77 613.05 1149.86 612.421C1150.94 611.791 1151.8 610.899 1152.43 609.744C1153.06 608.554 1153.37 607.155 1153.37 605.545C1153.37 603.901 1153.06 602.501 1152.43 601.347C1151.8 600.192 1150.94 599.3 1149.86 598.67C1148.77 598.04 1147.55 597.725 1146.18 597.725C1144.82 597.725 1143.59 598.04 1142.51 598.67C1141.43 599.3 1140.55 600.192 1139.89 601.347C1139.26 602.501 1138.94 603.901 1138.94 605.545C1138.94 607.155 1139.26 608.554 1139.89 609.744C1140.55 610.899 1141.43 611.791 1142.51 612.421C1143.59 613.05 1144.82 613.365 1146.18 613.365ZM1188.03 619.663L1178.58 606.28L1185.25 602.344L1197.69 619.663H1188.03ZM1168.03 619.663V591.427H1176.22V619.663H1168.03ZM1173.81 608.957V602.396H1183.67V608.957H1173.81ZM1186.03 606.49L1178.37 605.65L1188.29 591.427H1197L1186.03 606.49Z" fill="black"/>
<path id="&#208;&#164;.&#208;&#152;.&#208;&#158;." d="M578.185 346.753C573.426 346.753 569.385 346.123 566.061 344.864C562.772 343.604 560.271 341.785 558.556 339.405C556.842 336.991 555.985 334.052 555.985 330.588C555.985 327.124 556.842 324.203 558.556 321.824C560.271 319.409 562.772 317.572 566.061 316.313C569.385 315.053 573.426 314.423 578.185 314.423C578.255 314.423 578.447 314.423 578.762 314.423C579.112 314.423 579.444 314.423 579.759 314.423C580.109 314.423 580.302 314.423 580.337 314.423C585.06 314.423 589.049 315.053 592.303 316.313C595.592 317.572 598.076 319.409 599.755 321.824C601.435 324.238 602.275 327.159 602.275 330.588C602.275 333.982 601.435 336.904 599.755 339.353C598.111 341.767 595.679 343.604 592.46 344.864C589.276 346.123 585.375 346.753 580.757 346.753C580.652 346.753 580.407 346.753 580.022 346.753C579.637 346.753 579.252 346.753 578.867 346.753C578.517 346.753 578.29 346.753 578.185 346.753ZM578.972 340.193C579.077 340.193 579.217 340.193 579.392 340.193C579.567 340.193 579.689 340.193 579.759 340.193C582.978 340.193 585.638 339.843 587.737 339.143C589.871 338.408 591.463 337.341 592.513 335.942C593.562 334.507 594.087 332.705 594.087 330.536C594.087 328.367 593.545 326.582 592.46 325.183C591.376 323.783 589.784 322.751 587.684 322.086C585.62 321.386 583.013 321.036 579.864 321.036C579.794 321.036 579.654 321.036 579.444 321.036C579.27 321.036 579.112 321.036 578.972 321.036C575.648 321.036 572.902 321.369 570.732 322.034C568.563 322.698 566.936 323.748 565.851 325.183C564.767 326.582 564.224 328.384 564.224 330.588C564.224 332.793 564.802 334.612 565.956 336.047C567.111 337.446 568.773 338.496 570.942 339.196C573.147 339.86 575.823 340.193 578.972 340.193ZM575.246 350.689V310.75H583.066V350.689H575.246ZM610.654 349.482C609.255 349.482 608.048 349.01 607.033 348.065C606.053 347.086 605.563 345.843 605.563 344.339C605.563 342.834 606.053 341.627 607.033 340.718C608.048 339.773 609.255 339.301 610.654 339.301C612.089 339.301 613.296 339.773 614.276 340.718C615.255 341.627 615.745 342.834 615.745 344.339C615.745 345.843 615.255 347.086 614.276 348.065C613.296 349.01 612.089 349.482 610.654 349.482ZM622.816 349.062V312.324H631.265V336.256L648.795 312.324H656.772V349.062H648.375V325.183L630.846 349.062H622.816ZM668.964 349.482C667.564 349.482 666.357 349.01 665.342 348.065C664.363 347.086 663.873 345.843 663.873 344.339C663.873 342.834 664.363 341.627 665.342 340.718C666.357 339.773 667.564 339.301 668.964 339.301C670.398 339.301 671.605 339.773 672.585 340.718C673.565 341.627 674.054 342.834 674.054 344.339C674.054 345.843 673.565 347.086 672.585 348.065C671.605 349.01 670.398 349.482 668.964 349.482ZM697.682 349.692C694.778 349.692 692.084 349.22 689.599 348.275C687.15 347.33 685.016 346.001 683.196 344.286C681.412 342.572 680.012 340.56 678.998 338.251C678.018 335.942 677.528 333.422 677.528 330.693C677.528 327.964 678.018 325.445 678.998 323.136C680.012 320.826 681.429 318.815 683.249 317.1C685.068 315.386 687.203 314.056 689.652 313.111C692.101 312.167 694.76 311.694 697.629 311.694C700.533 311.694 703.192 312.167 705.607 313.111C708.056 314.056 710.173 315.386 711.957 317.1C713.777 318.815 715.194 320.826 716.208 323.136C717.223 325.41 717.73 327.929 717.73 330.693C717.73 333.422 717.223 335.959 716.208 338.303C715.194 340.613 713.777 342.624 711.957 344.339C710.173 346.018 708.056 347.33 705.607 348.275C703.192 349.22 700.551 349.692 697.682 349.692ZM697.629 342.449C699.274 342.449 700.778 342.17 702.143 341.61C703.542 341.05 704.767 340.245 705.817 339.196C706.866 338.146 707.671 336.904 708.231 335.469C708.826 334.035 709.123 332.443 709.123 330.693C709.123 328.944 708.826 327.352 708.231 325.917C707.671 324.483 706.866 323.241 705.817 322.191C704.802 321.141 703.595 320.337 702.195 319.777C700.796 319.217 699.274 318.937 697.629 318.937C695.985 318.937 694.463 319.217 693.063 319.777C691.699 320.337 690.492 321.141 689.442 322.191C688.392 323.241 687.57 324.483 686.975 325.917C686.415 327.352 686.135 328.944 686.135 330.693C686.135 332.408 686.415 334 686.975 335.469C687.57 336.904 688.375 338.146 689.389 339.196C690.439 340.245 691.664 341.05 693.063 341.61C694.463 342.17 695.985 342.449 697.629 342.449ZM726.299 349.482C724.899 349.482 723.692 349.01 722.678 348.065C721.698 347.086 721.208 345.843 721.208 344.339C721.208 342.834 721.698 341.627 722.678 340.718C723.692 339.773 724.899 339.301 726.299 339.301C727.734 339.301 728.941 339.773 729.92 340.718C730.9 341.627 731.39 342.834 731.39 344.339C731.39 345.843 730.9 347.086 729.92 348.065C728.941 349.01 727.734 349.482 726.299 349.482Z" fill="black"/>
<path id="&#208;&#164;&#208;&#190;&#209;&#130;&#208;&#190;" d="M184.449 476.462C179.557 476.462 175.401 475.815 171.984 474.52C168.602 473.224 166.03 471.354 164.267 468.908C162.505 466.425 161.623 463.403 161.623 459.842C161.623 456.281 162.505 453.277 164.267 450.83C166.03 448.348 168.602 446.46 171.984 445.165C175.401 443.869 179.557 443.222 184.449 443.222C184.521 443.222 184.719 443.222 185.043 443.222C185.402 443.222 185.744 443.222 186.068 443.222C186.428 443.222 186.625 443.222 186.661 443.222C191.518 443.222 195.619 443.869 198.965 445.165C202.346 446.46 204.9 448.348 206.627 450.83C208.354 453.313 209.217 456.317 209.217 459.842C209.217 463.332 208.354 466.335 206.627 468.854C204.936 471.336 202.436 473.224 199.127 474.52C195.853 475.815 191.842 476.462 187.093 476.462C186.985 476.462 186.733 476.462 186.338 476.462C185.942 476.462 185.546 476.462 185.151 476.462C184.791 476.462 184.557 476.462 184.449 476.462ZM185.258 469.717C185.366 469.717 185.51 469.717 185.69 469.717C185.87 469.717 185.996 469.717 186.068 469.717C189.377 469.717 192.112 469.357 194.27 468.638C196.464 467.882 198.101 466.785 199.18 465.346C200.26 463.871 200.799 462.018 200.799 459.788C200.799 457.558 200.242 455.723 199.127 454.284C198.011 452.845 196.374 451.784 194.216 451.1C192.094 450.381 189.413 450.021 186.176 450.021C186.104 450.021 185.96 450.021 185.744 450.021C185.564 450.021 185.402 450.021 185.258 450.021C181.841 450.021 179.017 450.363 176.786 451.046C174.556 451.73 172.883 452.809 171.768 454.284C170.653 455.723 170.095 457.576 170.095 459.842C170.095 462.108 170.689 463.979 171.876 465.454C173.063 466.893 174.772 467.972 177.002 468.692C179.269 469.375 182.021 469.717 185.258 469.717ZM181.427 480.509V439.445H189.467V480.509H181.427ZM229.463 479.268C226.37 479.268 223.618 478.621 221.207 477.326C218.833 476.03 216.944 474.268 215.541 472.037C214.174 469.771 213.491 467.199 213.491 464.321C213.491 461.407 214.174 458.835 215.541 456.604C216.944 454.338 218.833 452.575 221.207 451.316C223.618 450.021 226.37 449.373 229.463 449.373C232.521 449.373 235.255 450.021 237.666 451.316C240.076 452.575 241.964 454.32 243.331 456.55C244.698 458.781 245.382 461.371 245.382 464.321C245.382 467.199 244.698 469.771 243.331 472.037C241.964 474.268 240.076 476.03 237.666 477.326C235.255 478.621 232.521 479.268 229.463 479.268ZM229.463 472.361C230.866 472.361 232.125 472.037 233.241 471.39C234.356 470.742 235.237 469.825 235.885 468.638C236.532 467.415 236.856 465.976 236.856 464.321C236.856 462.63 236.532 461.191 235.885 460.004C235.237 458.817 234.356 457.899 233.241 457.252C232.125 456.604 230.866 456.281 229.463 456.281C228.06 456.281 226.801 456.604 225.686 457.252C224.571 457.899 223.672 458.817 222.988 460.004C222.34 461.191 222.017 462.63 222.017 464.321C222.017 465.976 222.34 467.415 222.988 468.638C223.672 469.825 224.571 470.742 225.686 471.39C226.801 472.037 228.06 472.361 229.463 472.361ZM257.079 478.836V454.77L258.968 456.712H247.258V449.805H275.264V456.712H263.554L265.443 454.77V478.836H257.079ZM292.893 479.268C289.799 479.268 287.047 478.621 284.637 477.326C282.262 476.03 280.374 474.268 278.971 472.037C277.604 469.771 276.92 467.199 276.92 464.321C276.92 461.407 277.604 458.835 278.971 456.604C280.374 454.338 282.262 452.575 284.637 451.316C287.047 450.021 289.799 449.373 292.893 449.373C295.951 449.373 298.685 450.021 301.095 451.316C303.505 452.575 305.394 454.32 306.761 456.55C308.128 458.781 308.812 461.371 308.812 464.321C308.812 467.199 308.128 469.771 306.761 472.037C305.394 474.268 303.505 476.03 301.095 477.326C298.685 478.621 295.951 479.268 292.893 479.268ZM292.893 472.361C294.296 472.361 295.555 472.037 296.67 471.39C297.785 470.742 298.667 469.825 299.314 468.638C299.962 467.415 300.286 465.976 300.286 464.321C300.286 462.63 299.962 461.191 299.314 460.004C298.667 458.817 297.785 457.899 296.67 457.252C295.555 456.604 294.296 456.281 292.893 456.281C291.49 456.281 290.231 456.604 289.116 457.252C288 457.899 287.101 458.817 286.418 460.004C285.77 461.191 285.446 462.63 285.446 464.321C285.446 465.976 285.77 467.415 286.418 468.638C287.101 469.825 288 470.742 289.116 471.39C290.231 472.037 291.49 472.361 292.893 472.361Z" fill="black"/>
<path id="&#208;&#159;&#208;&#190;&#209;&#129;&#208;&#181;&#209;&#137;&#208;&#181;&#208;&#189;&#208;&#184;&#209;&#143;" d="M63.6618 757.428V719.655H98.0892V757.428H89.4014V724.781L91.3979 726.778H70.353L72.3496 724.781V757.428H63.6618ZM121.159 757.859C118.065 757.859 115.313 757.212 112.903 755.917C110.529 754.622 108.64 752.859 107.237 750.629C105.87 748.362 105.186 745.79 105.186 742.912C105.186 739.998 105.87 737.426 107.237 735.196C108.64 732.929 110.529 731.167 112.903 729.907C115.313 728.612 118.065 727.965 121.159 727.965C124.217 727.965 126.951 728.612 129.361 729.907C131.771 731.167 133.66 732.911 135.027 735.142C136.394 737.372 137.078 739.962 137.078 742.912C137.078 745.79 136.394 748.362 135.027 750.629C133.66 752.859 131.771 754.622 129.361 755.917C126.951 757.212 124.217 757.859 121.159 757.859ZM121.159 750.952C122.562 750.952 123.821 750.629 124.936 749.981C126.051 749.334 126.933 748.416 127.58 747.229C128.228 746.006 128.552 744.567 128.552 742.912C128.552 741.221 128.228 739.782 127.58 738.595C126.933 737.408 126.051 736.491 124.936 735.843C123.821 735.196 122.562 734.872 121.159 734.872C119.756 734.872 118.497 735.196 117.382 735.843C116.266 736.491 115.367 737.408 114.684 738.595C114.036 739.782 113.712 741.221 113.712 742.912C113.712 744.567 114.036 746.006 114.684 747.229C115.367 748.416 116.266 749.334 117.382 749.981C118.497 750.629 119.756 750.952 121.159 750.952ZM157.437 757.859C154.307 757.859 151.519 757.23 149.073 755.971C146.627 754.676 144.702 752.895 143.299 750.629C141.932 748.362 141.249 745.79 141.249 742.912C141.249 739.998 141.932 737.426 143.299 735.196C144.702 732.929 146.627 731.167 149.073 729.907C151.519 728.612 154.307 727.965 157.437 727.965C160.495 727.965 163.157 728.612 165.423 729.907C167.69 731.167 169.362 732.983 170.442 735.358L163.912 738.865C163.157 737.498 162.204 736.491 161.052 735.843C159.937 735.196 158.714 734.872 157.383 734.872C155.944 734.872 154.649 735.196 153.498 735.843C152.347 736.491 151.429 737.408 150.746 738.595C150.098 739.782 149.774 741.221 149.774 742.912C149.774 744.603 150.098 746.042 150.746 747.229C151.429 748.416 152.347 749.334 153.498 749.981C154.649 750.629 155.944 750.952 157.383 750.952C158.714 750.952 159.937 750.647 161.052 750.035C162.204 749.387 163.157 748.362 163.912 746.959L170.442 750.521C169.362 752.859 167.69 754.676 165.423 755.971C163.157 757.23 160.495 757.859 157.437 757.859ZM190.136 757.859C186.826 757.859 183.912 757.212 181.394 755.917C178.912 754.622 176.987 752.859 175.62 750.629C174.253 748.362 173.569 745.79 173.569 742.912C173.569 739.998 174.235 737.426 175.566 735.196C176.933 732.929 178.786 731.167 181.124 729.907C183.462 728.612 186.106 727.965 189.056 727.965C191.898 727.965 194.452 728.576 196.719 729.799C199.021 730.987 200.838 732.713 202.169 734.98C203.5 737.21 204.165 739.89 204.165 743.02C204.165 743.344 204.147 743.722 204.112 744.153C204.076 744.549 204.04 744.927 204.004 745.286H180.422V740.376H199.579L196.341 741.833C196.341 740.322 196.035 739.009 195.424 737.894C194.812 736.779 193.967 735.915 192.888 735.304C191.808 734.656 190.549 734.332 189.11 734.332C187.671 734.332 186.394 734.656 185.279 735.304C184.2 735.915 183.354 736.796 182.743 737.948C182.131 739.063 181.825 740.394 181.825 741.941V743.236C181.825 744.819 182.167 746.222 182.851 747.445C183.57 748.632 184.559 749.549 185.819 750.197C187.114 750.808 188.625 751.114 190.351 751.114C191.898 751.114 193.247 750.88 194.398 750.413C195.586 749.945 196.665 749.244 197.636 748.308L202.115 753.165C200.784 754.676 199.111 755.845 197.097 756.672C195.082 757.464 192.762 757.859 190.136 757.859ZM211.374 757.428V728.396H219.738V752.463L217.849 750.521H231.177L229.343 752.463V728.396H237.761V752.463L235.818 750.521H249.2L247.312 752.463V728.396H255.676V757.428H211.374ZM251.899 763.202V755.485L253.787 757.428H247.096V750.521H259.723V763.202H251.899ZM278.701 757.859C275.392 757.859 272.478 757.212 269.96 755.917C267.477 754.622 265.553 752.859 264.186 750.629C262.819 748.362 262.135 745.79 262.135 742.912C262.135 739.998 262.801 737.426 264.132 735.196C265.499 732.929 267.351 731.167 269.69 729.907C272.028 728.612 274.672 727.965 277.622 727.965C280.464 727.965 283.018 728.576 285.285 729.799C287.587 730.987 289.404 732.713 290.735 734.98C292.066 737.21 292.731 739.89 292.731 743.02C292.731 743.344 292.713 743.722 292.677 744.153C292.641 744.549 292.605 744.927 292.569 745.286H268.988V740.376H288.145L284.907 741.833C284.907 740.322 284.601 739.009 283.99 737.894C283.378 736.779 282.533 735.915 281.453 735.304C280.374 734.656 279.115 734.332 277.676 734.332C276.237 734.332 274.96 734.656 273.845 735.304C272.766 735.915 271.92 736.796 271.309 737.948C270.697 739.063 270.391 740.394 270.391 741.941V743.236C270.391 744.819 270.733 746.222 271.417 747.445C272.136 748.632 273.125 749.549 274.384 750.197C275.68 750.808 277.19 751.114 278.917 751.114C280.464 751.114 281.813 750.88 282.964 750.413C284.151 749.945 285.231 749.244 286.202 748.308L290.681 753.165C289.35 754.676 287.677 755.845 285.662 756.672C283.648 757.464 281.327 757.859 278.701 757.859ZM299.939 757.428V728.396H308.303V739.728H320.93V728.396H329.348V757.428H320.93V746.581H308.303V757.428H299.939ZM338.162 757.428V728.396H346.526V745.664L360.664 728.396H368.381V757.428H360.017V740.16L345.933 757.428H338.162ZM395.521 757.428V747.769L396.708 749.118H388.668C384.495 749.118 381.221 748.254 378.847 746.528C376.473 744.801 375.286 742.319 375.286 739.081C375.286 735.627 376.527 732.983 379.009 731.149C381.527 729.314 384.909 728.396 389.154 728.396H403.022V757.428H395.521ZM374.854 757.428L382.57 746.366H391.15L383.811 757.428H374.854ZM395.521 745.178V733.091L396.708 735.25H389.315C387.589 735.25 386.24 735.573 385.268 736.221C384.333 736.868 383.865 737.912 383.865 739.351C383.865 742.121 385.646 743.506 389.208 743.506H396.708L395.521 745.178Z" fill="black"/>
<path id="&#226;&#132;&#150;" d="M1022.36 184.605V143.795H1030.18L1054.25 173.178H1050.46V143.795H1059.79V184.605H1052.04L1027.9 155.221H1031.69V184.605H1022.36ZM1065.21 171.954V166.415H1084.92V171.954H1065.21ZM1075.07 162.567C1072.93 162.567 1071.02 162.159 1069.35 161.343C1067.72 160.527 1066.42 159.38 1065.45 157.903C1064.51 156.426 1064.05 154.755 1064.05 152.889C1064.05 151.024 1064.51 149.372 1065.45 147.934C1066.42 146.496 1067.72 145.369 1069.35 144.553C1071.02 143.736 1072.93 143.328 1075.07 143.328C1077.24 143.328 1079.15 143.736 1080.78 144.553C1082.45 145.369 1083.75 146.496 1084.69 147.934C1085.62 149.372 1086.09 151.043 1086.09 152.948C1086.09 154.774 1085.6 156.426 1084.63 157.903C1083.69 159.341 1082.41 160.488 1080.78 161.343C1079.15 162.159 1077.24 162.567 1075.07 162.567ZM1075.07 157.728C1076.5 157.728 1077.67 157.301 1078.56 156.446C1079.46 155.552 1079.91 154.366 1079.91 152.889C1079.91 151.413 1079.46 150.266 1078.56 149.45C1077.67 148.595 1076.5 148.167 1075.07 148.167C1073.63 148.167 1072.44 148.595 1071.51 149.45C1070.62 150.266 1070.17 151.432 1070.17 152.948C1070.17 154.386 1070.62 155.552 1071.51 156.446C1072.44 157.301 1073.63 157.728 1075.07 157.728Z" fill="black"/>
</g>
<g id="Group 3">
<rect id="Rectangle 18" x="57.0581" y="276" width="385.43" height="381" fill="white"/>
<g id="others">
<path id="79" d="M220.948 345.607C222.682 343.556 224.117 341.799 225.256 340.379C226.395 338.96 228.303 337.081 229.491 336.208C230.213 335.676 230.933 335.145 231.656 334.616C226.39 340.258 222.442 344.976 220.944 347.417C220.357 348.371 219.814 348.866 219.605 348.638C219.407 348.417 219.62 347.684 220.102 346.929C220.384 346.487 220.667 346.046 220.948 345.607Z" fill="#A86749"/>
</g>
<g id="person">
<path id="12" d="M212.714 497.844C212.782 492.211 212.849 486.581 212.917 480.951C212.35 479.595 211.78 478.236 211.211 476.879C210.27 474.642 208.372 470.286 206.99 467.204C205.609 464.122 204.477 461.054 204.477 460.387C204.477 459.982 204.477 459.576 204.477 459.174C204.421 459.069 204.365 458.967 204.309 458.865C203.866 458.055 201.163 445.115 200.768 441.917C200.264 437.823 199.466 435.564 198.528 435.564C198.046 435.564 197.888 436.013 197.888 437.396C197.888 438.403 197.704 439.228 197.476 439.228C197.25 439.228 195.219 437.403 192.962 435.171C190.705 432.94 188.771 431.256 188.664 431.429C188.555 431.601 188.621 432.409 188.805 433.224C189.05 434.295 189.99 435.532 192.184 437.68C196.632 442.031 198.208 444.574 199.604 449.651C200.252 452.003 201.056 454.56 202.007 456.73C199.774 456.402 191.013 452.063 187.668 449.629C181.293 444.992 178.064 437.396 180.17 432.001C180.449 431.29 180.728 430.577 181.004 429.866C182.139 429.946 183.271 430.026 184.403 430.106C187.086 430.295 188.536 430.164 191.299 429.487C198.47 427.73 201.381 425.638 207.771 417.654C208.731 416.567 209.693 415.482 210.653 414.398C211.085 414.058 211.519 413.718 211.95 413.381C212.663 412.82 213.589 412.362 214.772 412.362C215.184 412.362 215.596 412.362 216.008 412.362C218.65 412.442 221.29 412.519 223.935 412.597C231.096 412.811 232 412.762 233.302 412.09C233.782 411.84 234.261 411.592 234.744 411.345C234.741 410.192 234.737 409.037 234.734 407.884C234.727 403.521 234.31 401.485 233.372 401.191C232.974 401.065 231.544 400.883 230.196 400.786C227.212 400.572 227.21 400.551 229.336 394.656C230.143 392.416 231.028 389.21 231.304 387.531C231.578 385.852 231.93 384.33 232.085 384.148C232.24 383.964 233.214 384.99 234.252 386.424C238.891 392.853 244.683 396.449 256.362 400.15C256.5 400.83 256.636 401.507 256.774 402.186C256.74 403.567 256.704 404.95 256.67 406.334C256.636 407.714 256.602 409.098 256.568 410.478C257.019 410.782 257.47 411.088 257.921 411.391C260.657 413.233 267.573 413.721 274.686 412.578C275.922 412.379 277.156 412.18 278.392 411.981C279.781 413.437 281.168 414.893 282.557 416.351C289.165 423.287 292.478 424.573 303.716 424.573C303.186 424.648 302.652 424.723 302.121 424.799C300.657 425.005 300.505 425.146 300.282 426.529C300.146 427.356 300.029 428.354 300.01 429.458C299.758 430.036 299.506 430.611 299.254 431.188C298.837 432.14 297.387 434.018 296.03 435.36C293.741 437.629 293.56 437.731 293.504 436.784C293.47 436.226 293.089 435.401 292.658 434.955C291.885 434.149 291.875 434.178 291.821 437.192C291.79 438.871 291.487 442.81 291.145 445.943C290.018 456.286 290.001 456.55 290.432 456.121C290.983 455.572 292.408 450.083 293.223 445.368C293.586 443.261 294.136 441.063 294.444 440.483C295.273 438.93 299.52 435.013 301.726 433.766C302.783 433.166 303.847 432.411 304.541 431.494C305.501 430.679 306.463 429.866 307.423 429.05C307.697 429.05 307.971 429.05 308.247 429.05C309.469 430.921 309.66 432.028 309.639 434.105C309.563 441.543 306.068 447.202 299.162 451.073C297.804 451.833 295.174 453.463 293.317 454.696C292.19 455.441 291.065 456.189 289.94 456.934C289.778 457.885 289.618 458.834 289.458 459.783C288.452 465.704 284.527 473.77 279.313 480.626C278.428 481.791 277.813 482.936 277.944 483.172C278.026 483.312 278.106 483.453 278.186 483.596C278.045 483.562 277.905 483.528 277.764 483.494C277.534 483.439 276.096 485.12 274.574 487.232C270.4 493.017 265.45 496.475 257.576 499.103C249.999 501.632 241.398 501.093 234.276 497.645C232.269 496.674 230.533 496 230.419 496.148C230.104 496.56 236.647 502.61 241.948 506.811C244.554 508.873 247.749 511.089 251.419 512.904C251.342 513.113 251.262 513.319 251.182 513.528C251.051 513.873 250.331 515.071 249.584 516.193C249.131 516.874 248.678 517.554 248.224 518.233C247.625 517.855 247.024 517.474 246.426 517.095C245.437 516.469 241.476 514.465 237.626 512.642C229.799 508.939 223.925 505.241 217.967 500.268C214.711 497.548 213.841 497.007 212.714 497.844ZM211.494 422.865C210.978 423.83 210.682 425.204 210.673 426.692C210.656 428.902 211.269 431.086 211.907 431.086C212.069 431.086 212.726 430.065 213.366 428.813C214.631 426.342 216.432 424.573 217.686 424.573C218.641 424.573 218.675 425.143 217.86 427.422C216.187 432.108 217.875 435.991 222.117 437.228C223.552 437.646 224.279 437.651 225.823 437.243C228.931 436.42 230.424 434.559 231.82 429.764C232.325 428.031 232.693 427.422 233.241 427.422C234.036 427.422 235.374 428.686 236.147 430.171C236.409 430.674 236.804 431.086 237.023 431.086C238.475 431.086 235.41 425.024 232.482 422.107C230.582 420.215 229.721 419.69 227.181 418.887C220.362 416.732 213.894 418.373 211.494 422.865ZM238.116 458.977C235.677 458.142 235.33 458.103 235.442 458.683C235.646 459.72 238.062 461.11 240.637 461.671C243.953 462.394 253.986 462.377 256.546 461.642C258.982 460.943 262.538 457.81 262.538 456.361C262.538 455.514 262.364 455.589 260.519 457.23C258.367 459.142 255.683 460.227 252.071 460.647C248.998 461.003 241.366 460.091 238.116 458.977ZM251.123 448.678C250.149 449.624 249.419 450.585 249.502 450.816C249.722 451.43 252.687 451.231 253.109 450.576C253.538 449.901 253.603 446.962 253.186 446.962C253.024 446.962 252.095 447.734 251.123 448.678ZM259.062 426.789C256.752 430.601 257.385 431.569 260.274 428.645C261.159 427.75 262.017 427.017 262.182 427.017C262.347 427.017 262.791 428.39 263.169 430.07C264.238 434.811 266.23 437.107 269.607 437.483C275.015 438.085 277.704 433.285 275.835 426.361C275.389 424.709 275.117 423.265 275.231 423.151C275.682 422.707 277.221 422.986 278.477 423.743C279.425 424.316 280.227 425.454 281.332 427.791C282.176 429.579 283.041 430.936 283.252 430.807C283.468 430.676 283.555 429.135 283.451 427.354C283.291 424.619 283.08 423.879 282.048 422.425C280.217 419.855 276.867 418.305 272.734 418.118C269.789 417.984 269.258 418.086 266.941 419.217C263.954 420.676 261.116 423.403 259.062 426.789Z" fill="#FFA075"/>
<path id="35" d="M278.598 498.657C279.422 499.2 280.246 499.742 281.068 500.285C282.673 505.165 282.787 506.253 282.603 509.167C282.234 515.001 279.182 523.905 275.401 530.185C273.11 533.993 268.458 538.858 265.833 540.198C263.237 541.523 259.605 541.562 258.432 540.278C258.153 539.972 257.877 539.666 257.598 539.363C256.258 536.75 254.92 534.138 253.581 531.527C251.373 527.217 249.594 524.019 249.628 524.422C249.662 524.824 250.726 528.258 254.304 538.955C252.546 539.339 249.213 539.247 245.759 538.999C243.665 538.849 241.573 538.698 239.478 538.548C240.327 536.614 241.173 534.682 242.019 532.748C245.073 525.776 246.872 520.791 246.19 521.187C245.921 521.345 244.358 523.987 242.719 527.06C241.08 530.132 239.032 533.791 236.596 537.735C234.712 539.688 232.829 541.644 230.945 543.6C230.577 543.362 230.211 543.125 229.842 542.887C228.075 541.741 221.225 534.883 219.411 532.442C215.497 527.174 210.857 518.008 209.633 513.123C208.84 509.951 208.976 507.871 210.265 503.44C210.532 502.525 210.799 501.608 211.065 500.693C212.343 499.669 212.714 499.028 212.714 498.608C212.714 498.353 212.714 498.099 212.714 497.844C213.841 497.007 214.711 497.548 217.967 500.268C223.925 505.241 229.799 508.939 237.626 512.642C241.476 514.465 245.437 516.469 246.426 517.095C247.024 517.474 247.625 517.855 248.224 518.233C248.678 517.554 249.131 516.874 249.584 516.193C250.331 515.071 251.051 513.873 251.182 513.528C251.262 513.319 251.342 513.113 251.419 512.904C253.24 512.21 255.058 511.516 256.876 510.822C266.618 507.102 271.299 504.481 278.598 498.657Z" fill="#FADCC8"/>
<path id="76" d="M278.186 483.596C278.508 489.117 278.911 492.393 279.287 494.442C279.922 497.912 279.922 498.181 279.284 498.412C279.054 498.492 278.826 498.574 278.598 498.657C271.299 504.481 266.618 507.102 256.876 510.822C255.058 511.516 253.24 512.21 251.419 512.904C247.749 511.089 244.554 508.873 241.948 506.811C236.647 502.61 230.104 496.56 230.419 496.148C230.533 496 232.269 496.674 234.276 497.645C241.398 501.093 249.999 501.632 257.576 499.103C265.45 496.475 270.4 493.017 274.574 487.232C276.096 485.12 277.534 483.439 277.764 483.494C277.905 483.528 278.045 483.562 278.186 483.596Z" fill="#16172D"/>
<path id="76_2" d="M211.494 422.865C213.894 418.373 220.362 416.732 227.181 418.887C229.721 419.69 230.582 420.215 232.482 422.107C235.41 425.024 238.475 431.086 237.023 431.086C236.804 431.086 236.409 430.674 236.147 430.171C235.374 428.686 234.036 427.422 233.241 427.422C232.693 427.422 232.325 428.031 231.82 429.764C230.424 434.559 228.931 436.42 225.823 437.243C224.279 437.651 223.552 437.646 222.117 437.228C217.875 435.991 216.187 432.108 217.86 427.422C218.675 425.143 218.641 424.573 217.686 424.573C216.432 424.573 214.631 426.342 213.366 428.812C212.726 430.065 212.069 431.086 211.907 431.086C211.269 431.086 210.656 428.902 210.673 426.692C210.682 425.204 210.978 423.83 211.494 422.865Z" fill="#16172D"/>
<path id="76_3" d="M259.062 426.789C261.116 423.403 263.954 420.676 266.941 419.217C269.258 418.086 269.789 417.984 272.734 418.118C276.867 418.305 280.217 419.855 282.048 422.425C283.08 423.879 283.291 424.619 283.451 427.354C283.555 429.135 283.468 430.676 283.252 430.807C283.041 430.936 282.176 429.579 281.332 427.791C280.227 425.454 279.425 424.316 278.477 423.743C277.221 422.986 275.682 422.707 275.231 423.151C275.117 423.265 275.389 424.709 275.835 426.361C277.704 433.285 275.015 438.085 269.607 437.483C266.23 437.107 264.238 434.811 263.169 430.069C262.791 428.39 262.347 427.017 262.182 427.017C262.017 427.017 261.159 427.75 260.274 428.645C257.385 431.569 256.752 430.601 259.062 426.789Z" fill="#16172D"/>
<path id="76_4" d="M204.477 459.174C203.652 458.358 202.831 457.545 202.007 456.73C201.056 454.56 200.251 452.002 199.604 449.651C198.208 444.574 196.632 442.031 192.184 437.68C189.99 435.532 189.05 434.294 188.805 433.224C188.621 432.409 188.555 431.601 188.664 431.428C188.771 431.256 190.705 432.94 192.962 435.17C195.219 437.403 197.25 439.228 197.476 439.228C197.704 439.228 197.888 438.403 197.888 437.396C197.888 436.013 198.046 435.564 198.528 435.564C199.466 435.564 200.264 437.823 200.768 441.917C201.163 445.115 203.866 458.055 204.309 458.865C204.365 458.967 204.421 459.069 204.477 459.174Z" fill="#16172D"/>
<path id="76_5" d="M304.541 431.494C303.847 432.411 302.783 433.166 301.726 433.765C299.52 435.013 295.273 438.93 294.444 440.483C294.136 441.063 293.586 443.261 293.223 445.368C292.408 450.083 290.983 455.572 290.432 456.121C290.001 456.55 290.018 456.286 291.145 445.943C291.487 442.81 291.79 438.871 291.821 437.192C291.875 434.178 291.884 434.149 292.658 434.955C293.089 435.401 293.47 436.226 293.504 436.784C293.56 437.731 293.741 437.629 296.03 435.36C297.387 434.018 298.837 432.14 299.254 431.188C299.506 430.611 299.758 430.036 300.01 429.458C301.52 430.137 303.03 430.815 304.541 431.494Z" fill="#16172D"/>
<path id="35_2" d="M307.423 429.05C306.463 429.866 305.501 430.679 304.541 431.494C303.03 430.815 301.52 430.137 300.01 429.458C300.029 428.354 300.146 427.356 300.282 426.529C300.505 425.146 300.657 425.005 302.121 424.799C302.652 424.723 303.186 424.648 303.716 424.573C305.365 424.425 307.011 424.274 308.659 424.126C308.652 424.573 308.647 425.022 308.642 425.468C308.633 426.209 308.354 427.315 308.024 427.932C307.823 428.305 307.624 428.679 307.423 429.05Z" fill="#FADCC8"/>
<path id="76_6" d="M238.116 458.977C241.366 460.091 248.998 461.003 252.071 460.647C255.683 460.227 258.367 459.142 260.519 457.23C262.364 455.589 262.538 455.514 262.538 456.361C262.538 457.81 258.982 460.943 256.546 461.642C253.986 462.377 243.953 462.394 240.637 461.671C238.062 461.11 235.646 459.72 235.442 458.683C235.33 458.103 235.677 458.142 238.116 458.977Z" fill="#16172D"/>
<path id="76_7" d="M239.478 538.548C238.518 538.276 237.556 538.007 236.596 537.735C239.032 533.791 241.08 530.132 242.719 527.06C244.358 523.987 245.921 521.345 246.19 521.187C246.872 520.791 245.073 525.776 242.019 532.748C241.173 534.682 240.327 536.614 239.478 538.548Z" fill="#16172D"/>
<path id="76_8" d="M257.598 539.363C256.5 539.227 255.402 539.091 254.304 538.955C250.726 528.258 249.662 524.824 249.628 524.422C249.594 524.019 251.373 527.217 253.581 531.527C254.92 534.138 256.258 536.749 257.598 539.363Z" fill="#16172D"/>
<path id="76_9" d="M251.123 448.678C252.096 447.734 253.024 446.962 253.186 446.962C253.603 446.962 253.538 449.901 253.109 450.576C252.687 451.231 249.722 451.43 249.502 450.816C249.419 450.585 250.149 449.624 251.123 448.678Z" fill="#16172D"/>
</g>
<g id="sweater 2">
<path id="35_3" d="M400.486 565.414C402.573 568.106 420.024 599.173 425.18 609.375C430.695 620.286 437.247 635.225 440.857 645.116C441.429 646.689 441.928 647.519 442.139 647.254C442.256 647.111 442.372 646.968 442.488 646.825C442.488 650.215 442.488 653.607 442.488 657C419.978 657 397.466 657 374.956 657C375.23 655.779 375.503 654.559 375.78 653.336C375.916 652.93 376.054 652.523 376.192 652.115C378.473 646.279 379.954 641.792 380.958 638.377C381.564 636.309 382.172 634.239 382.781 632.169C382.781 631.628 382.781 631.085 382.781 630.541C383.384 630.063 386.305 619.448 388.295 610.494C388.378 610.12 388.463 609.749 388.545 609.375C388.545 608.967 388.545 608.562 388.545 608.154C389.178 607.278 391.9 596.974 394.06 587.292C394.142 586.92 394.227 586.547 394.31 586.173C394.31 585.632 394.31 585.088 394.31 584.544C394.891 583.756 396.094 579.635 397.361 574.876C398.127 571.993 398.896 569.11 399.662 566.227C399.938 565.956 400.212 565.684 400.486 565.414Z" fill="#FADCC8"/>
<path id="35_4" d="M57.0581 646.417C57.6472 646.74 58.4641 644.861 59.2544 642.452C61.213 636.484 69.3507 613.102 71.4742 607.339C72.4244 604.764 74.0898 600.185 75.1758 597.164C76.2618 594.142 77.9295 589.745 78.8822 587.393C79.8349 585.044 81.0833 581.839 81.6578 580.271C83.2044 576.046 87.8877 564.88 88.358 564.293C88.4937 564.123 88.6295 563.956 88.7652 563.786C89.3155 564.463 89.8633 565.143 90.4136 565.82C90.5494 566.363 90.6875 566.907 90.8233 567.448C90.1494 568.664 94.7745 583.93 96.4035 585.867C96.6023 586.105 96.8011 586.343 97.0023 586.58C97.0023 586.852 97.0023 587.122 97.0023 587.393C98.0228 592.555 101.242 604.57 102.316 607.237C102.604 607.95 102.89 608.661 103.179 609.375C103.179 609.647 103.179 609.919 103.179 610.188C103.71 610.979 104.105 612.302 104.396 613.636C105.089 616.818 108.706 627.668 109.763 629.738C110.039 630.277 110.315 630.815 110.589 631.356C110.866 631.762 111.14 632.169 111.413 632.577C111.413 634.145 116.54 649.695 117.988 652.515C118.266 653.061 118.545 653.605 118.826 654.151C118.962 654.423 119.1 654.692 119.238 654.964C119.238 655.643 119.238 656.32 119.238 657C98.5101 657 77.7841 657 57.0581 657C57.0581 653.471 57.0581 649.945 57.0581 646.417Z" fill="#FADCC8"/>
</g>
<g id="sweater 1">
<path id="18" d="M297.54 508.832C314.705 513.363 359.058 529.28 373.496 536.092C374.944 536.776 376.391 537.458 377.838 538.14C377.712 538.242 377.586 538.344 377.457 538.446C377.249 538.613 376.699 541.407 376.233 544.654C375.28 551.303 373.075 568.113 372.706 571.52C372.573 572.751 371.829 579.07 371.053 585.561C369.72 596.712 367.977 612.54 365.693 634.206C365.138 639.467 364.309 646.747 363.015 657C352.858 657 342.698 657 332.541 657C333.218 655.386 333.894 653.775 334.568 652.161C338.568 642.607 340.102 636.106 340.851 625.506C341.387 617.934 341.603 618.386 336.944 617.327C328.311 615.367 323.274 614.891 311.335 614.906C299.85 614.92 298.65 615.017 288.639 616.74C287.761 616.891 286.886 617.041 286.011 617.192C286.013 620.266 286.016 623.339 286.018 626.411C286.026 635.841 286.576 641.68 287.924 646.597C288.294 647.953 289.313 650.848 291.775 657C277.774 657 263.775 657 249.773 657C250.527 654.457 251.283 651.911 252.037 649.368C253.281 645.17 255.707 637.339 257.429 631.966C263.877 611.826 270.49 590.446 273.321 580.591C273.912 578.529 274.506 576.463 275.098 574.401C274.652 574.362 274.208 574.321 273.762 574.282C273.316 574.243 272.87 574.204 272.426 574.165C271.479 577.422 270.533 580.679 269.588 583.935C266.109 595.902 262.022 609.055 255.232 630.133C252.384 638.979 249.342 648.64 246.891 657C245.243 657 243.597 657 241.948 657C241.49 656.139 241.03 655.275 240.571 654.413C233.806 641.712 224.039 617.597 212.937 586.187C200.838 551.953 194.485 529.899 190.887 509.648C192.536 509.104 194.182 508.563 195.83 508.019C196.247 509.682 196.664 511.344 197.081 513.006C198.96 520.488 200.605 525.147 203.478 531.129C206.435 537.286 208.765 540.921 212.045 544.496C218.216 551.228 227.542 556.018 238.174 557.918C240.31 558.299 244.142 558.561 247.715 558.569C265.864 558.607 279.934 551.405 288.195 537.839C292.905 530.103 295.603 521.733 297.54 508.832Z" fill="#DCA051"/>
<path id="18_2" d="M116.766 535.291C127.063 529.816 141.324 524.099 154.754 520.058C156.366 519.573 157.98 519.088 159.592 518.602C160.084 520.944 160.576 523.284 161.066 525.625C164.108 540.115 167.892 554.567 173.397 572.741C179.911 594.232 193.37 630.529 201.173 647.638C202.346 650.212 203.754 653.372 205.301 657C181.967 657 158.632 657 135.298 657C134.891 654.69 134.484 652.377 134.076 650.067C133.402 646.252 132.205 638.513 131.415 632.868C129.626 620.113 127.029 602.667 125.439 592.713C124.007 583.753 123.636 581.198 120.661 559.918C119.408 550.963 118.131 541.836 117.818 539.635C117.505 537.434 117.142 535.558 116.766 535.291ZM155.99 605.123C155.285 605.337 155.34 606.317 156.092 606.934C156.572 607.327 156.843 607.332 157.302 606.953C157.784 606.56 158.007 606.684 158.499 607.623C158.831 608.259 159.013 609.244 158.904 609.814C158.62 611.28 159.57 611.952 161.306 611.508C162.988 611.076 163.274 609.591 161.883 608.509C161.389 608.123 160.463 607.065 159.823 606.155C158.647 604.475 158.363 604.4 155.99 605.123Z" fill="#DCA051"/>
<path id="68" d="M159.592 518.602C174.934 513.95 184.497 511.249 185.22 511.363C185.782 511.456 186.151 512.519 186.951 516.365C191.295 537.235 198.589 564.031 205.32 583.86C215.366 613.442 223.615 634.21 232.08 651.234C233.037 653.156 233.992 655.078 234.95 657C225.067 657 215.184 657 205.301 657C203.754 653.372 202.346 650.212 201.173 647.638C193.37 630.529 179.911 594.232 173.397 572.741C167.892 554.567 164.108 540.116 161.066 525.625C160.576 523.284 160.084 520.944 159.592 518.602ZM186.791 581.688C185.196 580.065 183.889 578.531 183.889 578.279C183.889 578.026 183.537 577.604 183.108 577.339C182.415 576.912 182.165 577.116 180.844 579.174C180.027 580.446 179.358 581.953 179.358 582.518C179.358 583.086 179.05 583.984 178.675 584.513C178.037 585.413 178.042 585.62 178.757 587.699C179.179 588.922 179.763 590.017 180.059 590.128C180.352 590.24 180.595 590.602 180.595 590.932C180.595 592.072 181.618 591.189 182.725 589.095C183.596 587.447 183.887 587.156 184.076 587.748C184.209 588.16 184.202 588.801 184.059 589.167C183.916 589.539 184.003 589.837 184.255 589.837C184.507 589.837 184.716 589.607 184.723 589.328C184.745 588.262 186.982 586.139 188.216 586.01C188.912 585.935 189.501 585.61 189.571 585.26C189.639 584.918 188.388 583.312 186.791 581.688ZM184.735 592.679C183.596 594.038 183.513 594.067 182.759 593.392C182.325 593.004 181.845 592.686 181.693 592.686C181.201 592.686 181.402 594.137 182.008 594.948C182.575 595.71 182.658 595.681 184.272 594.13C185.193 593.244 185.942 592.237 185.935 591.89C185.928 591.497 185.479 591.793 184.735 592.679ZM201.599 574.978C201.422 574.308 200.795 572.843 200.203 571.724C199.612 570.603 199.127 569.453 199.124 569.164C199.119 567.414 196.661 565.81 194.019 565.832C190.992 565.854 186.359 570.933 186.359 574.226C186.359 575.813 186.572 576.189 188.621 578.182C190.747 580.249 193.845 582.103 195.176 582.103C195.5 582.103 197.171 581.353 198.887 580.438C201.791 578.89 202.004 578.686 201.965 577.488C201.941 576.779 201.776 575.65 201.599 574.978Z" fill="#1C1D36"/>
<path id="18_3" d="M281.068 500.285C283.051 501.853 285.846 503.425 291.055 505.91C292.529 506.612 294.006 507.316 295.482 508.019C295.407 508.597 295.329 509.172 295.254 509.75C294.469 515.705 291.007 527.067 288.428 532.161C285.303 538.325 280.002 544.67 275.071 548.148C271.316 550.798 266.199 553.057 260.684 554.501C255.967 555.736 255.383 555.797 247.715 555.821C240.179 555.846 239.437 555.778 235.655 554.734C223.964 551.504 216.403 546.161 209.882 536.524C204.203 528.13 200.923 519.83 198.3 507.206C198.601 506.803 200.499 505.92 202.714 504.983C204.93 504.047 207.715 502.697 208.903 501.986C209.625 501.554 210.345 501.125 211.065 500.693C210.799 501.608 210.532 502.525 210.265 503.44C208.976 507.871 208.84 509.951 209.633 513.123C210.857 518.008 215.497 527.174 219.412 532.442C221.225 534.883 228.075 541.741 229.842 542.887C230.211 543.125 230.577 543.362 230.945 543.6C232.829 541.644 234.712 539.688 236.596 537.735C237.556 538.007 238.518 538.276 239.478 538.548C241.573 538.698 243.665 538.849 245.759 538.999C249.213 539.247 252.546 539.339 254.304 538.956C255.402 539.091 256.5 539.227 257.598 539.363C257.877 539.667 258.153 539.972 258.432 540.278C259.605 541.562 263.237 541.523 265.833 540.198C268.458 538.858 273.11 533.993 275.401 530.185C279.182 523.905 282.234 515.001 282.603 509.167C282.787 506.253 282.673 505.165 281.068 500.285Z" fill="#DCA051"/>
<path id="76_10" d="M235.772 657C223.901 632.64 216.92 615.372 206.731 585.156C199.444 563.541 194.182 544.702 188.657 520.447C187.918 517.209 187.181 513.975 186.444 510.737C187.186 510.555 187.925 510.373 188.667 510.191C189.406 510.009 190.148 509.83 190.887 509.648C194.485 529.899 200.838 551.953 212.937 586.187C224.039 617.597 233.806 641.711 240.571 654.413C241.03 655.275 241.49 656.139 241.948 657C239.89 657 237.832 657 235.772 657Z" fill="#16172D"/>
<path id="18_4" d="M97.0023 586.58C96.8011 586.343 96.6023 586.105 96.4036 585.867C94.7746 583.93 90.1494 568.664 90.8233 567.448C93.0559 566.344 95.2861 565.242 97.5162 564.138C105.264 560.304 114.213 556.331 116.497 555.71C117.025 555.567 117.554 555.423 118.082 555.28C118.574 558.712 119.069 562.143 119.561 565.577C120.053 569.008 120.547 572.44 121.04 575.871C120.361 576.116 119.685 576.361 119.006 576.607C111.544 579.307 100.357 584.377 97.0023 586.58Z" fill="#DCA051"/>
<path id="18_5" d="M97.0023 587.394C97.1889 587.469 97.3732 587.544 97.5598 587.619C97.8677 587.743 101.62 586.304 105.899 584.423C114.502 580.642 120.773 578.194 121.083 578.499C121.195 578.609 121.75 581.618 122.319 585.183C122.889 588.75 123.701 593.662 124.125 596.098C124.382 597.576 124.639 599.052 124.896 600.527C124.399 600.668 123.902 600.806 123.405 600.944C118.441 602.333 109.217 606.177 103.179 609.375C102.89 608.662 102.604 607.951 102.316 607.237C101.242 604.57 98.0228 592.555 97.0023 587.394Z" fill="#DCA051"/>
<path id="18_6" d="M88.7652 563.786C88.0623 558.265 87.7641 555.443 87.6502 553.955C87.5799 553.052 87.512 552.152 87.4417 551.249C88.4525 550.546 89.461 549.839 90.4718 549.136C97.0847 544.525 105.896 539.747 112.133 537.39C113.268 536.961 114.4 536.534 115.532 536.106C115.922 538.955 116.313 541.804 116.703 544.653C117.709 551.999 117.786 553.203 117.258 553.203C114.771 553.203 96.2654 561.9 90.4136 565.82C89.8634 565.143 89.3155 564.463 88.7652 563.786Z" fill="#DCA051"/>
<path id="18_7" d="M103.179 610.188C103.382 610.271 103.586 610.353 103.79 610.433C104.127 610.569 107.045 609.569 110.277 608.213C116.715 605.512 124.554 602.689 124.841 602.973C124.94 603.07 125.667 607.254 126.457 612.268C127.245 617.281 127.999 621.948 128.128 622.637C128.205 623.055 128.285 623.474 128.363 623.892C126.806 624.401 125.253 624.909 123.696 625.418C118.046 627.265 112.589 629.738 110.589 631.357C110.315 630.815 110.039 630.277 109.763 629.738C108.706 627.668 105.089 616.818 104.396 613.636C104.105 612.302 103.71 610.979 103.179 610.188Z" fill="#DCA051"/>
<path id="76_11" d="M377.838 538.14C378.25 538.276 378.662 538.412 379.074 538.548C377.44 550.626 377.118 554.256 377.3 554.411C377.482 554.564 379.988 555.567 382.868 556.637C385.748 557.709 390.889 559.94 394.295 561.592C396.358 562.594 398.423 563.597 400.486 564.599C400.486 564.871 400.486 565.143 400.486 565.414C400.212 565.684 399.938 565.955 399.662 566.227C385.406 559.838 377.964 556.773 377.152 556.952C376.791 557.032 376.296 559.563 375.576 565.007C375.002 569.372 374.488 573.459 374.434 574.09C374.342 575.184 374.57 575.342 379.28 577.451C381.998 578.669 386.492 580.764 389.265 582.106C390.947 582.918 392.627 583.731 394.31 584.544C394.31 585.088 394.31 585.632 394.31 586.173C393.35 586.173 389.207 584.362 384.482 582.149C379.758 579.934 375.482 577.995 374.98 577.837C374.071 577.551 374.056 577.621 372.699 588.893C372.243 592.676 371.787 596.457 371.332 600.238C372.519 600.694 373.707 601.148 374.895 601.604C379.935 603.539 388.572 607.484 388.557 607.849C388.552 607.95 388.547 608.052 388.545 608.154C388.545 608.562 388.545 608.967 388.545 609.375C374.64 603.655 371.54 602.439 371.349 602.629C371.242 602.733 370.716 606.892 370.178 611.872C369.64 616.849 369.087 621.514 368.951 622.232C368.869 622.666 368.786 623.103 368.704 623.537C370.534 624.409 372.367 625.28 374.197 626.151C377.22 627.59 380.386 629.165 381.236 629.653C381.75 629.949 382.264 630.245 382.781 630.541C382.781 631.085 382.781 631.628 382.781 632.169C382.301 632.274 379.239 630.876 375.663 629.129C372.09 627.381 369.07 626.047 368.954 626.163C368.835 626.28 368.234 630.801 367.613 636.21C367.24 639.488 366.864 642.765 366.488 646.043C367.843 646.749 369.201 647.458 370.556 648.164C372.793 649.329 374.975 650.695 375.406 651.2C375.668 651.506 375.93 651.809 376.192 652.115C376.054 652.523 375.916 652.93 375.78 653.336C369.625 649.843 367.451 648.79 366.98 648.742C366.193 648.662 366.081 648.989 365.599 652.828C365.424 654.219 365.247 655.609 365.073 657C364.387 657 363.701 657 363.015 657C364.309 646.747 365.138 639.467 365.693 634.205C367.977 612.539 369.72 596.712 371.053 585.561C371.829 579.07 372.573 572.75 372.706 571.52C373.075 568.113 375.28 551.303 376.233 544.653C376.699 541.406 377.249 538.613 377.457 538.446C377.586 538.344 377.712 538.242 377.838 538.14Z" fill="#16172D"/>
<path id="18_8" d="M388.545 608.154C388.547 608.052 388.552 607.95 388.557 607.849C388.572 607.485 379.935 603.539 374.895 601.605C373.707 601.148 372.519 600.694 371.332 600.238C371.787 596.457 372.243 592.676 372.699 588.893C374.056 577.621 374.071 577.551 374.98 577.837C375.482 577.995 379.758 579.934 384.482 582.149C389.207 584.362 393.35 586.173 394.31 586.173C394.227 586.547 394.142 586.92 394.06 587.292C391.9 596.974 389.178 607.278 388.545 608.154Z" fill="#DCA051"/>
<path id="76_12" d="M115.532 536.106C115.944 535.835 116.356 535.563 116.766 535.291C117.142 535.558 117.505 537.434 117.818 539.635C118.131 541.836 119.408 550.963 120.661 559.918C123.636 581.198 124.007 583.753 125.439 592.713C127.029 602.667 129.626 620.113 131.415 632.868C132.205 638.513 133.402 646.252 134.076 650.067C134.484 652.377 134.891 654.69 135.298 657C134.61 657 133.924 657 133.238 657C132.796 654.238 132.355 651.474 131.914 648.713C129.8 649.754 127.689 650.797 125.575 651.838C123.464 652.879 121.35 653.923 119.238 654.964C119.1 654.692 118.962 654.423 118.826 654.151C119.105 652.782 120.933 651.695 125.371 649.555C127.446 648.557 129.519 647.557 131.592 646.558C131.073 643.143 130.554 639.731 130.035 636.317C129.517 632.902 128.998 629.49 128.479 626.076C126.954 626.605 125.427 627.134 123.902 627.663C121.386 628.537 117.544 629.997 115.37 630.912C114.051 631.468 112.732 632.021 111.414 632.577C111.14 632.169 110.866 631.762 110.589 631.356C112.589 629.738 118.046 627.265 123.696 625.418C125.253 624.909 126.806 624.401 128.363 623.892C128.285 623.474 128.205 623.055 128.128 622.637C127.999 621.948 127.245 617.281 126.457 612.268C125.667 607.254 124.94 603.07 124.841 602.973C124.554 602.689 116.715 605.512 110.277 608.213C107.045 609.569 104.127 610.569 103.79 610.433C103.586 610.353 103.382 610.27 103.179 610.188C103.179 609.919 103.179 609.647 103.179 609.375C109.217 606.176 118.441 602.333 123.405 600.944C123.902 600.806 124.399 600.668 124.896 600.527C124.639 599.052 124.382 597.576 124.125 596.098C123.701 593.662 122.889 588.75 122.319 585.183C121.75 581.618 121.195 578.609 121.083 578.499C120.773 578.194 114.502 580.642 105.899 584.423C101.62 586.304 97.8677 587.743 97.5598 587.619C97.3732 587.544 97.1889 587.469 97.0023 587.393C97.0023 587.122 97.0023 586.852 97.0023 586.58C100.357 584.377 111.544 579.307 119.006 576.607C119.684 576.361 120.361 576.116 121.04 575.871C120.547 572.44 120.053 569.008 119.561 565.577C119.069 562.143 118.574 558.712 118.082 555.28C117.554 555.423 117.025 555.567 116.497 555.71C114.213 556.331 105.264 560.304 97.5162 564.138C95.286 565.242 93.0559 566.344 90.8233 567.448C90.6875 566.907 90.5494 566.363 90.4136 565.82C96.2654 561.9 114.771 553.203 117.258 553.203C117.786 553.203 117.709 551.999 116.703 544.653C116.313 541.804 115.922 538.955 115.532 536.106Z" fill="#16172D"/>
<path id="18_9" d="M394.31 584.544C392.627 583.731 390.947 582.919 389.265 582.106C386.492 580.764 381.998 578.669 379.28 577.451C374.57 575.342 374.342 575.184 374.434 574.09C374.488 573.459 375.002 569.372 375.576 565.007C376.296 559.563 376.791 557.032 377.152 556.952C377.964 556.773 385.406 559.838 399.662 566.227C398.896 569.11 398.127 571.993 397.361 574.876C396.094 579.635 394.891 583.756 394.31 584.544Z" fill="#DCA051"/>
<path id="18_10" d="M379.074 538.548C396.033 546.898 401.136 549.534 401.354 549.793C401.609 550.099 401.609 551.194 401.349 552.854C401.129 554.278 400.845 557.501 400.716 560.02C400.641 561.546 400.564 563.073 400.486 564.599C398.423 563.597 396.358 562.595 394.295 561.592C390.889 559.94 385.748 557.71 382.868 556.637C379.988 555.567 377.482 554.564 377.3 554.412C377.118 554.256 377.44 550.626 379.074 538.548Z" fill="#DCA051"/>
<path id="18_11" d="M382.781 630.541C382.264 630.245 381.75 629.949 381.236 629.653C380.386 629.165 377.22 627.59 374.197 626.151C372.367 625.28 370.534 624.409 368.704 623.538C368.786 623.103 368.869 622.666 368.951 622.232C369.087 621.514 369.64 616.849 370.178 611.872C370.716 606.892 371.242 602.733 371.349 602.629C371.54 602.439 374.64 603.655 388.545 609.375C388.463 609.749 388.378 610.12 388.295 610.494C386.305 619.448 383.384 630.063 382.781 630.541Z" fill="#DCA051"/>
<path id="18_12" d="M118.826 654.151C118.545 653.605 118.266 653.061 117.988 652.515C116.54 649.696 111.414 634.145 111.414 632.577C112.732 632.022 114.051 631.468 115.37 630.913C117.544 629.998 121.386 628.537 123.902 627.663C125.427 627.134 126.954 626.605 128.479 626.076C128.998 629.49 129.517 632.903 130.035 636.317C130.554 639.731 131.073 643.143 131.592 646.558C129.519 647.558 127.446 648.557 125.371 649.555C120.933 651.695 119.105 652.782 118.826 654.151Z" fill="#DCA051"/>
<path id="76_13" d="M295.482 508.019C296.168 508.291 296.854 508.563 297.54 508.832C295.603 521.733 292.905 530.103 288.195 537.839C279.934 551.405 265.864 558.607 247.715 558.569C244.142 558.561 240.31 558.299 238.174 557.918C227.542 556.018 218.216 551.228 212.045 544.496C208.765 540.921 206.435 537.286 203.478 531.129C200.605 525.147 198.959 520.488 197.081 513.006C196.664 511.344 196.247 509.682 195.83 508.019C196.654 507.748 197.476 507.476 198.3 507.206C200.923 519.83 204.203 528.13 209.882 536.524C216.403 546.161 223.964 551.504 235.655 554.734C239.437 555.778 240.179 555.846 247.715 555.822C255.383 555.797 255.967 555.737 260.684 554.501C266.199 553.057 271.316 550.798 275.071 548.148C280.002 544.671 285.303 538.325 288.428 532.161C291.007 527.067 294.469 515.705 295.254 509.75C295.329 509.172 295.407 508.597 295.482 508.019Z" fill="#16172D"/>
<path id="18_13" d="M376.192 652.115C375.93 651.809 375.668 651.506 375.407 651.2C374.975 650.695 372.793 649.329 370.556 648.164C369.201 647.458 367.843 646.749 366.488 646.043C366.864 642.765 367.24 639.489 367.613 636.21C368.234 630.801 368.835 626.28 368.954 626.163C369.07 626.047 372.09 627.382 375.663 629.129C379.239 630.876 382.301 632.274 382.781 632.17C382.172 634.24 381.564 636.31 380.958 638.377C379.954 641.792 378.473 646.279 376.192 652.115Z" fill="#DCA051"/>
<path id="76_14" d="M246.891 657C249.342 648.64 252.384 638.979 255.232 630.133C262.022 609.055 266.109 595.902 269.588 583.935C270.533 580.679 271.479 577.422 272.426 574.165C272.87 574.204 273.316 574.243 273.762 574.282C274.208 574.321 274.652 574.362 275.098 574.401C274.506 576.463 273.912 578.529 273.321 580.591C270.489 590.446 263.877 611.826 257.428 631.966C255.707 637.338 253.281 645.17 252.037 649.368C251.283 651.911 250.527 654.457 249.773 657C248.813 657 247.851 657 246.891 657Z" fill="#16172D"/>
<path id="60" d="M201.599 574.978C201.776 575.65 201.941 576.779 201.965 577.487C202.004 578.686 201.791 578.89 198.887 580.438C197.171 581.353 195.5 582.103 195.175 582.103C193.845 582.103 190.747 580.249 188.621 578.181C186.572 576.189 186.359 575.813 186.359 574.226C186.359 570.933 190.992 565.854 194.019 565.832C196.661 565.81 199.119 567.414 199.124 569.164C199.127 569.452 199.612 570.603 200.203 571.724C200.795 572.843 201.422 574.308 201.599 574.978Z" fill="#1C1D36"/>
<path id="60_2" d="M186.791 581.688C188.388 583.312 189.639 584.918 189.571 585.26C189.501 585.61 188.912 585.935 188.216 586.01C186.982 586.139 184.745 588.262 184.723 589.328C184.716 589.607 184.507 589.837 184.255 589.837C184.003 589.837 183.916 589.539 184.059 589.168C184.202 588.801 184.209 588.16 184.076 587.748C183.886 587.156 183.596 587.447 182.725 589.095C181.618 591.189 180.595 592.072 180.595 590.932C180.595 590.602 180.352 590.24 180.059 590.129C179.763 590.017 179.179 588.922 178.757 587.699C178.042 585.62 178.037 585.413 178.675 584.513C179.05 583.984 179.358 583.086 179.358 582.518C179.358 581.953 180.027 580.446 180.844 579.174C182.165 577.116 182.415 576.912 183.108 577.34C183.537 577.604 183.889 578.026 183.889 578.279C183.889 578.531 185.196 580.065 186.791 581.688Z" fill="#1C1D36"/>
<path id="18_14" d="M119.238 654.964C121.35 653.923 123.464 652.879 125.575 651.838C127.689 650.797 129.8 649.754 131.914 648.713C132.355 651.474 132.796 654.238 133.238 657C128.571 657 123.905 657 119.238 657C119.238 656.32 119.238 655.643 119.238 654.964Z" fill="#DCA051"/>
<path id="18_15" d="M365.073 657C365.247 655.609 365.424 654.219 365.599 652.828C366.081 648.989 366.193 648.662 366.98 648.742C367.451 648.79 369.625 649.844 375.78 653.336C375.503 654.559 375.23 655.779 374.956 657C371.661 657 368.367 657 365.073 657Z" fill="#DCA051"/>
<path id="46" d="M155.99 605.123C158.363 604.4 158.647 604.475 159.823 606.155C160.463 607.065 161.389 608.123 161.883 608.509C163.274 609.591 162.988 611.076 161.306 611.508C159.57 611.952 158.62 611.28 158.904 609.814C159.013 609.244 158.831 608.259 158.499 607.623C158.007 606.684 157.784 606.56 157.302 606.953C156.843 607.332 156.572 607.327 156.092 606.934C155.34 606.317 155.285 605.337 155.99 605.123Z" fill="#DCA051"/>
<path id="60_3" d="M184.735 592.679C185.479 591.793 185.928 591.497 185.935 591.89C185.942 592.237 185.193 593.244 184.272 594.13C182.657 595.681 182.575 595.71 182.008 594.948C181.402 594.137 181.201 592.686 181.693 592.686C181.845 592.686 182.325 593.004 182.759 593.392C183.513 594.067 183.596 594.038 184.735 592.679Z" fill="#1C1D36"/>
</g>
<g id="brown hair">
<path id="20" d="M181.004 429.866C176.168 427.793 173.385 425.354 171.57 421.595C169.708 417.742 169.012 414.682 168.864 409.716C168.738 405.397 168.673 405.125 167.061 402.021C164.969 397.995 164.375 395.229 164.634 390.713C164.819 387.538 165.037 386.774 166.768 383.255C169.049 378.62 172.913 374.339 177.88 370.944C178.922 370.233 179.964 369.52 181.004 368.809C181.123 368.872 181.242 368.935 181.358 369C181.555 369.105 183.731 368.311 186.197 367.234C190.783 365.232 196.751 363.162 200.744 362.191C201.973 361.892 203.068 361.38 203.175 361.055C203.345 360.543 202.896 360.553 199.898 361.116C195.534 361.936 191.067 363.501 181.416 367.586C183.644 362.919 185.387 360.102 186.728 358.313C191.845 351.491 199.156 347.196 208.697 345.408C212.314 344.728 218.573 344.629 220.022 345.226C220.33 345.352 220.641 345.478 220.948 345.607C220.667 346.046 220.384 346.487 220.102 346.929C219.62 347.684 219.407 348.417 219.605 348.638C219.814 348.866 220.357 348.371 220.944 347.417C222.442 344.976 226.39 340.258 231.656 334.616C237.456 330.151 242.768 327.535 248.229 326.455C248.881 326.326 249.533 326.197 250.185 326.066C250.185 326.268 250.185 326.467 250.185 326.668C250.185 326.998 249.594 327.571 248.871 327.94C247.053 328.869 237.008 338.952 232.877 343.993C231.001 346.284 229.101 348.252 228.657 348.368C228.194 348.487 227.474 349.397 226.972 350.494C226.4 351.741 225.307 353.042 223.831 354.222C222.585 355.219 221.567 356.294 221.567 356.614C221.567 356.964 222.156 357.289 223.05 357.432C224.728 357.701 227.906 359.415 229.92 361.138C230.664 361.774 231.462 362.295 231.692 362.295C232.271 362.295 234.538 359.791 234.538 359.15C234.538 358.866 234.174 358.631 233.728 358.631C233.282 358.631 232.727 358.279 232.494 357.845C232.259 357.413 231.651 357 231.142 356.93C230.393 356.823 230.228 356.563 230.291 355.578C230.354 354.598 231.125 353.678 234.203 350.916C240.14 345.59 254.844 330.944 254.551 330.653C254.406 330.512 253.504 331.112 252.546 331.985C251.965 332.517 251.383 333.048 250.803 333.58C251.165 333.043 251.528 332.505 251.889 331.968C252.253 331.432 252.614 330.896 252.978 330.359C252.609 330.138 252.241 329.918 251.875 329.697C250.813 329.059 250.719 329.076 249.448 330.124C248.721 330.723 248.127 331.522 248.127 331.898C248.127 332.274 247.895 332.572 247.611 332.56C246.792 332.531 248.527 329.59 250.2 328.178C251.613 326.986 254.372 326.193 258.418 325.814C259.208 325.739 259.903 325.491 260.068 324.846C272.506 325.867 277.255 327.289 281.626 331.298C284.556 333.985 287.305 339.125 287.81 342.857C287.894 343.503 287.982 344.148 288.069 344.791C287.691 344.646 287.315 344.498 286.937 344.35C286.314 344.107 283.766 343.367 281.274 342.707C276.007 341.309 268.031 340.736 264.087 341.471C261.719 341.913 256.495 343.772 255.773 344.43C254.9 345.221 256.037 345.179 259.295 344.299C262.26 343.498 263.729 343.367 269.745 343.367C275.735 343.367 277.563 343.529 288.069 345.607C308.669 350.788 319.597 358.813 321.837 370.406C322.396 373.31 321.587 377.844 319.745 382.139C319.206 383.393 318.668 384.648 318.13 385.903C317.737 385.328 317.347 384.75 316.954 384.175C315.541 382.095 310.22 376.999 306.805 374.456C303.753 372.182 299.549 369.622 298.871 369.622C297.591 369.622 298.694 370.891 302.582 373.895C304.899 375.686 309.253 379.489 317.718 387.531C322.983 394.608 326.413 405.193 325.526 411.631C324.573 418.55 320.981 423.746 314.962 426.917C313.595 427.636 311.524 428.412 310.361 428.638C309.656 428.776 308.952 428.915 308.247 429.05C307.971 429.05 307.697 429.05 307.423 429.05C307.624 428.679 307.823 428.305 308.024 427.932C308.354 427.315 308.633 426.209 308.642 425.469C308.647 425.022 308.652 424.573 308.659 424.127C307.011 424.275 305.365 424.425 303.716 424.573C292.478 424.573 289.165 423.287 282.557 416.351C281.168 414.893 279.781 413.437 278.392 411.981C277.156 412.18 275.922 412.379 274.686 412.578C267.573 413.721 260.657 413.233 257.921 411.391C257.47 411.088 257.019 410.782 256.568 410.478C256.602 409.098 256.636 407.714 256.67 406.334C256.704 404.95 256.74 403.567 256.774 402.186C257.322 402.458 257.872 402.727 258.42 402.999C258.207 403.147 257.993 403.293 257.78 403.441C257.399 403.701 257.188 404.324 257.264 404.967C257.387 406.018 257.484 406.057 260.376 406.173C263.673 406.304 264.177 405.906 261.819 405.038C260.822 404.669 260.529 404.424 261.714 404.222C263.052 404.579 264.39 404.936 265.731 405.295C273.301 407.316 281.546 406.659 289.463 403.4C292.803 402.026 295.964 399.51 295.252 398.791C294.944 398.481 294.452 398.612 293.552 399.245C291.494 400.694 286.52 402.475 281.892 403.419C278.436 404.125 276.702 404.259 273.246 404.089C268.487 403.853 265.515 403.162 256.362 400.15C244.683 396.449 238.891 392.853 234.252 386.425C233.214 384.99 232.24 383.964 232.085 384.148C231.93 384.33 231.578 385.852 231.304 387.531C231.028 389.21 230.143 392.416 229.336 394.656C227.21 400.551 227.212 400.572 230.196 400.786C231.544 400.883 232.974 401.065 233.372 401.191C234.31 401.485 234.727 403.521 234.734 407.884C234.737 409.037 234.741 410.192 234.744 411.345C234.261 411.592 233.782 411.84 233.302 412.09C232 412.762 231.096 412.811 223.935 412.597C221.29 412.519 218.65 412.442 216.008 412.362C216.178 412.272 216.35 412.182 216.522 412.092C217.659 411.495 221.334 408.316 224.412 405.268C227.193 402.516 227.615 401.919 227.295 401.199C226.95 400.422 226.674 400.599 223.831 403.426C222.131 405.115 219.295 407.562 217.523 408.862C215.419 410.408 214.386 411.422 214.772 412.362C213.589 412.362 212.663 412.82 211.95 413.381C211.519 413.718 211.085 414.058 210.653 414.398C209.589 414.679 208.525 414.961 207.463 415.242C201.226 416.892 194.96 415.543 189.287 411.325C187.646 410.105 186.085 409.115 185.816 409.127C184.665 409.173 187.135 412.689 189.489 414.359C193.823 417.424 196.368 417.882 207.771 417.654C201.381 425.638 198.47 427.73 191.299 429.487C188.536 430.164 187.086 430.295 184.403 430.106C183.271 430.026 182.139 429.946 181.004 429.866ZM166.271 386.31C165.812 387.543 165.422 388.893 165.398 389.312C165.335 390.475 166.438 389.412 166.726 388.031C166.852 387.422 167.795 385.638 168.818 384.073C170.891 380.896 170.816 380.993 174.108 377.009C177.32 373.121 177.373 372.17 174.236 374.711C172.074 376.463 167.395 383.275 166.271 386.31ZM183.765 364.128C183.213 365.188 183.208 365.365 183.734 365.484C184.577 365.671 191.75 362.616 191.588 362.135C191.406 361.592 187.283 361.395 186.96 361.914C186.778 362.203 186.534 362.201 186.18 361.909C185.586 361.422 184.8 362.142 183.765 364.128ZM200.152 377.56C197.103 380.918 194.603 383.801 194.601 383.971C194.579 385.041 196.511 383.367 203.446 376.293C207.752 371.905 211.332 368.061 211.405 367.748C211.477 367.435 211.681 367.18 211.858 367.18C212.345 367.18 216.546 362.286 216.282 362.024C215.504 361.257 211.143 365.455 200.152 377.56ZM198.913 375.919C196.797 378.023 196.274 378.766 196.652 379.127C197.34 379.778 205.301 371.471 205.301 370.1C205.301 369.787 205.301 369.471 205.301 369.156C204.932 369.442 204.564 369.728 204.196 370.015C203.587 370.488 202.77 371.393 202.38 372.029C201.99 372.662 200.431 374.415 198.913 375.919ZM202.38 384.432C201.042 386.422 199.948 388.208 199.948 388.402C199.948 389.31 200.981 388.448 204.297 384.784C208.956 379.63 210.968 376.885 212.801 373.184C213.216 372.345 213.683 371.658 213.836 371.658C213.991 371.658 214.808 372.323 215.652 373.136C216.626 374.077 217.419 374.526 217.831 374.371C218.713 374.036 218.648 373.286 217.736 373.286C216.12 373.286 215.509 371.653 216.658 370.398C217.259 369.743 217.235 369.646 216.35 369.187C215.821 368.911 215.288 368.532 215.162 368.345C215.038 368.158 212.813 369.971 210.217 372.376C207.621 374.779 204.685 377.407 203.691 378.215C202.586 379.115 202.004 379.87 202.186 380.166C202.671 380.938 204.123 380.256 206.094 378.329C208.472 376.006 208.775 376.363 206.547 378.863C205.592 379.938 203.716 382.442 202.38 384.432ZM222.723 357.818C221.739 357.818 222.16 358.607 224.824 361.752C228.114 365.63 229.304 368.01 230.829 373.75C231.488 376.235 232.114 378.351 232.218 378.455C232.63 378.86 232.986 373.818 232.8 370.287C232.577 366.113 231.808 364.166 229.53 362.016C227.978 360.553 223.545 357.818 222.723 357.818ZM233.716 355.17C233.175 355.5 233.188 356.071 233.74 356.41C234.354 356.784 234.688 356.35 234.385 355.571C234.245 355.212 233.944 355.03 233.716 355.17ZM239.927 349.043C239.679 349.193 239.478 349.48 239.478 349.676C239.478 350.305 240.358 350.598 240.833 350.13C240.986 349.98 241.139 349.827 241.291 349.676C241.139 349.526 240.986 349.375 240.833 349.222C240.581 348.975 240.171 348.892 239.927 349.043ZM269.205 411.362C268.907 411.461 268.785 411.74 268.936 411.981C269.117 412.269 270.145 412.323 271.949 412.136C274.666 411.859 276.05 411.291 275.425 410.709C275.129 410.437 270.54 410.918 269.205 411.362Z" fill="#85402F"/>
<path id="78" d="M250.185 326.066C253.48 325.661 256.774 325.253 260.068 324.846C259.904 325.491 259.208 325.739 258.418 325.814C254.372 326.193 251.613 326.986 250.2 328.178C248.527 329.59 246.792 332.531 247.611 332.56C247.895 332.572 248.127 332.274 248.127 331.898C248.127 331.522 248.721 330.723 249.448 330.124C250.719 329.076 250.813 329.059 251.875 329.697C252.241 329.918 252.609 330.138 252.978 330.359C252.614 330.896 252.253 331.432 251.889 331.968C251.528 332.505 251.165 333.043 250.803 333.58C251.383 333.048 251.965 332.517 252.546 331.985C253.504 331.112 254.406 330.512 254.551 330.653C254.844 330.944 240.14 345.59 234.203 350.916C231.125 353.678 230.354 354.598 230.291 355.578C230.228 356.563 230.393 356.823 231.142 356.93C231.651 357 232.259 357.413 232.494 357.845C232.727 358.279 233.282 358.631 233.728 358.631C234.174 358.631 234.538 358.866 234.538 359.15C234.538 359.791 232.271 362.295 231.692 362.295C231.462 362.295 230.664 361.774 229.92 361.138C227.906 359.415 224.728 357.701 223.05 357.432C222.156 357.289 221.567 356.964 221.567 356.614C221.567 356.294 222.585 355.219 223.831 354.222C225.307 353.042 226.4 351.741 226.972 350.494C227.474 349.397 228.194 348.487 228.657 348.368C229.101 348.252 231.001 346.284 232.877 343.993C237.008 338.952 247.053 328.869 248.871 327.94C249.594 327.571 250.185 326.998 250.185 326.668C250.185 326.467 250.185 326.268 250.185 326.066Z" fill="#904F33"/>
<path id="50" d="M202.38 384.432C203.716 382.442 205.592 379.938 206.547 378.863C208.775 376.363 208.472 376.006 206.094 378.329C204.123 380.256 202.671 380.938 202.186 380.166C202.004 379.87 202.586 379.115 203.691 378.215C204.685 377.407 207.621 374.778 210.217 372.376C212.813 369.971 215.038 368.158 215.162 368.345C215.288 368.532 215.821 368.911 216.35 369.187C217.235 369.646 217.259 369.743 216.658 370.398C215.509 371.653 216.12 373.286 217.736 373.286C218.648 373.286 218.713 374.036 217.831 374.371C217.419 374.526 216.626 374.077 215.652 373.136C214.808 372.323 213.991 371.658 213.836 371.658C213.683 371.658 213.216 372.344 212.801 373.184C210.968 376.885 208.956 379.63 204.297 384.784C200.981 388.448 199.948 389.31 199.948 388.402C199.948 388.208 201.042 386.422 202.38 384.432Z" fill="#A8603F"/>
<path id="76_15" d="M256.774 402.186C256.636 401.507 256.5 400.83 256.362 400.15C265.515 403.162 268.487 403.854 273.246 404.089C276.702 404.259 278.436 404.125 281.892 403.419C286.52 402.475 291.494 400.694 293.552 399.245C294.452 398.612 294.944 398.481 295.252 398.791C295.964 399.51 292.803 402.026 289.463 403.4C281.546 406.659 273.301 407.316 265.731 405.295C264.39 404.936 263.052 404.579 261.714 404.222C261.372 403.616 260.633 403.339 259.848 403.22C259.373 403.147 258.897 403.075 258.42 402.999C257.872 402.727 257.322 402.458 256.774 402.186Z" fill="#16172D"/>
<path id="76_16" d="M210.653 414.398C209.693 415.482 208.731 416.567 207.771 417.654C196.368 417.882 193.823 417.424 189.489 414.359C187.135 412.689 184.665 409.173 185.816 409.127C186.085 409.115 187.646 410.105 189.287 411.325C194.96 415.543 201.226 416.892 207.463 415.242C208.525 414.961 209.589 414.679 210.653 414.398Z" fill="#16172D"/>
<path id="76_17" d="M222.723 357.818C223.545 357.818 227.978 360.553 229.53 362.016C231.808 364.166 232.577 366.113 232.8 370.287C232.986 373.818 232.63 378.86 232.218 378.455C232.114 378.351 231.488 376.235 230.829 373.75C229.304 368.01 228.114 365.63 224.824 361.752C222.16 358.607 221.739 357.818 222.723 357.818Z" fill="#16172D"/>
<path id="76_18" d="M288.069 344.791C288.069 345.063 288.069 345.335 288.069 345.607C277.563 343.529 275.735 343.367 269.745 343.367C263.729 343.367 262.26 343.498 259.295 344.299C256.037 345.18 254.9 345.221 255.773 344.43C256.495 343.772 261.719 341.913 264.087 341.471C268.031 340.736 276.007 341.309 281.274 342.707C283.766 343.367 286.314 344.107 286.937 344.35C287.315 344.498 287.691 344.646 288.069 344.791Z" fill="#16172D"/>
<path id="76_19" d="M318.13 385.903C317.992 386.446 317.854 386.99 317.718 387.531C309.253 379.489 304.899 375.686 302.582 373.895C298.694 370.891 297.591 369.622 298.871 369.622C299.549 369.622 303.753 372.182 306.805 374.456C310.22 376.999 315.541 382.095 316.954 384.175C317.347 384.75 317.737 385.328 318.13 385.903Z" fill="#16172D"/>
<path id="59" d="M181.004 368.809C181.142 368.401 181.281 367.993 181.416 367.586C191.067 363.501 195.534 361.936 199.898 361.116C202.896 360.553 203.345 360.543 203.175 361.055C203.068 361.38 201.973 361.893 200.744 362.191C196.751 363.162 190.783 365.232 186.197 367.234C183.731 368.311 181.555 369.105 181.358 369C181.242 368.935 181.123 368.872 181.004 368.809Z" fill="#19171A"/>
<path id="50_2" d="M200.152 377.56C211.143 365.455 215.504 361.257 216.282 362.024C216.546 362.286 212.345 367.18 211.858 367.18C211.681 367.18 211.477 367.435 211.405 367.748C211.332 368.061 207.752 371.905 203.446 376.293C196.511 383.367 194.579 385.041 194.601 383.971C194.603 383.801 197.103 380.918 200.152 377.56Z" fill="#A8603F"/>
<path id="66" d="M216.008 412.362C215.596 412.362 215.184 412.362 214.772 412.362C214.386 411.422 215.419 410.408 217.523 408.862C219.295 407.561 222.131 405.115 223.831 403.426C226.674 400.599 226.95 400.422 227.295 401.199C227.615 401.919 227.193 402.516 224.412 405.268C221.334 408.316 217.659 411.495 216.522 412.092C216.35 412.182 216.178 412.272 216.008 412.362Z" fill="#2D2424"/>
<path id="78_2" d="M166.271 386.31C167.395 383.275 172.074 376.463 174.236 374.711C177.373 372.17 177.32 373.121 174.108 377.009C170.816 380.993 170.891 380.896 168.818 384.073C167.795 385.638 166.852 387.422 166.726 388.031C166.438 389.412 165.335 390.475 165.398 389.312C165.422 388.893 165.812 387.543 166.271 386.31Z" fill="#904F33"/>
<path id="78_3" d="M183.765 364.128C184.8 362.143 185.586 361.422 186.18 361.91C186.534 362.201 186.778 362.203 186.96 361.914C187.283 361.395 191.406 361.592 191.588 362.135C191.75 362.616 184.577 365.671 183.734 365.484C183.208 365.365 183.213 365.188 183.765 364.128Z" fill="#904F33"/>
<path id="54" d="M261.714 404.222C260.529 404.424 260.822 404.669 261.819 405.038C264.177 405.907 263.673 406.304 260.376 406.173C257.484 406.057 257.387 406.018 257.264 404.967C257.188 404.324 257.399 403.701 257.78 403.441C257.993 403.293 258.207 403.147 258.42 402.999C258.897 403.074 259.373 403.147 259.848 403.22C260.633 403.339 261.372 403.616 261.714 404.222Z" fill="#672D21"/>
<path id="78_4" d="M198.913 375.919C200.431 374.414 201.99 372.662 202.38 372.029C202.77 371.393 203.587 370.488 204.196 370.015C204.564 369.728 204.932 369.442 205.301 369.156C205.301 369.471 205.301 369.787 205.301 370.1C205.301 371.471 197.34 379.778 196.652 379.127C196.274 378.766 196.797 378.023 198.913 375.919Z" fill="#904F33"/>
<path id="70" d="M269.205 411.362C270.54 410.918 275.129 410.437 275.425 410.709C276.05 411.291 274.666 411.859 271.949 412.136C270.145 412.323 269.117 412.269 268.936 411.981C268.785 411.74 268.907 411.461 269.205 411.362Z" fill="#703B2F"/>
<path id="78_5" d="M239.927 349.043C240.171 348.892 240.581 348.975 240.833 349.222C240.986 349.375 241.139 349.526 241.291 349.676C241.139 349.827 240.986 349.98 240.833 350.13C240.358 350.598 239.478 350.305 239.478 349.676C239.478 349.48 239.679 349.193 239.927 349.043Z" fill="#904F33"/>
<path id="78_6" d="M233.716 355.17C233.944 355.03 234.245 355.212 234.385 355.571C234.688 356.35 234.354 356.784 233.74 356.411C233.188 356.071 233.176 355.501 233.716 355.17Z" fill="#904F33"/>
</g>
<g id="a tag">
<path id="18_16" d="M295.07 657C294.597 656.017 294.127 655.032 293.654 654.049C289.933 646.288 288.871 640.881 288.59 628.255C288.52 625.117 288.45 621.982 288.379 618.846C289.46 618.694 290.542 618.541 291.623 618.388C302.902 616.798 315.927 616.624 326.173 617.924C334.018 618.919 338.289 619.844 338.587 620.613C338.905 621.429 337.971 631.378 337.237 635.018C336.076 640.77 334.11 646.179 329.247 657C317.854 657 306.463 657 295.07 657ZM302.822 630.568C301.928 632.215 301.86 634.147 302.631 635.948C304.458 640.219 310.092 640.042 312.312 635.644C313.41 633.47 313.284 631.696 311.905 629.963C309.389 626.801 304.696 627.112 302.822 630.568ZM316.305 640.136C315.468 640.964 315.49 641.255 316.455 642.117C317.032 642.634 317.597 642.755 318.513 642.556C319.987 642.236 320.106 641.626 318.937 640.389C317.943 639.333 317.19 639.26 316.305 640.136Z" fill="#DCA051"/>
<path id="76_20" d="M291.775 657C289.313 650.848 288.294 647.953 287.924 646.596C286.576 641.68 286.025 635.841 286.018 626.411C286.016 623.338 286.013 620.266 286.011 617.191C286.886 617.041 287.761 616.891 288.639 616.74C298.65 615.017 299.85 614.92 311.335 614.906C323.274 614.891 328.311 615.367 336.943 617.327C341.603 618.385 341.387 617.934 340.851 625.506C340.102 636.106 338.568 642.607 334.568 652.161C333.894 653.775 333.218 655.386 332.541 657C331.443 657 330.345 657 329.247 657C334.11 646.179 336.076 640.77 337.237 635.018C337.971 631.378 338.905 621.429 338.587 620.613C338.289 619.844 334.018 618.919 326.173 617.924C315.927 616.624 302.902 616.798 291.623 618.388C290.542 618.541 289.46 618.694 288.379 618.847C288.45 621.982 288.52 625.117 288.59 628.255C288.871 640.881 289.933 646.288 293.654 654.049C294.127 655.032 294.597 656.017 295.07 657C293.972 657 292.874 657 291.775 657Z" fill="#16172D"/>
<path id="55" d="M302.822 630.568C304.696 627.112 309.389 626.802 311.905 629.964C313.284 631.696 313.41 633.47 312.312 635.645C310.092 640.042 304.458 640.219 302.631 635.948C301.86 634.147 301.928 632.216 302.822 630.568Z" fill="#DCA051"/>
<path id="37" d="M316.305 640.136C317.19 639.26 317.943 639.333 318.937 640.389C320.106 641.626 319.987 642.236 318.513 642.556C317.597 642.755 317.032 642.634 316.455 642.117C315.49 641.255 315.468 640.964 316.305 640.136Z" fill="#DCA051"/>
</g>
</g>
<rect id="Rectangle 24" x="60" y="275" width="383" height="383" rx="16" stroke="black" stroke-width="10"/>
<line id="Line 9" x1="1106" y1="197" x2="1470" y2="197" stroke="black" stroke-width="6"/>
<line id="Line 10" x1="786" y1="376" x2="1470" y2="376" stroke="black" stroke-width="6"/>
<line id="Line 11" x1="786" y1="509" x2="1470" y2="509" stroke="black" stroke-width="6"/>
<line id="Line 12" x1="1233" y1="640" x2="1470" y2="640" stroke="black" stroke-width="6"/>
<line id="Line 13" x1="784" y1="640" x2="984" y2="640" stroke="black" stroke-width="6"/>
</g>
</svg>
